<svg width="122" height="122" viewBox="0 0 122 122" fill="none" xmlns="http://www.w3.org/2000/svg">
<path d="M7.36925 29.5547C8.1666 29.0704 9.00815 28.6665 9.84788 28.2615C12.8647 26.8085 13.759 26.9562 15.9064 27.8734C17.4478 28.5321 23.3005 30.9611 23.8981 32.4965C24.0797 32.9651 24.0343 32.8791 24.0736 38.9249C24.087 40.9362 23.8006 40.8108 23.6063 41.8455C23.3247 43.3458 23.7776 43.8719 22.0103 44.7891C19.6865 46.1006 17.1452 46.9825 14.5085 47.3925C13.7319 47.6215 12.9171 47.691 12.113 47.5967C11.3089 47.5024 10.5322 47.2464 9.82972 46.8439C8.69878 46.3087 4.18349 43.6999 3.58169 42.6102C3.21843 41.9484 3.28503 41.6954 3.13367 35.7949C2.99927 30.4931 2.51371 32.4983 7.36925 29.5547Z" fill="#FFC5F6"/>
<path d="M22.7557 30.143C14.2833 26.5497 13.9291 26.0678 12.3151 26.7404L4.3234 30.0703C3.75049 30.3081 3.26103 30.7105 2.91701 31.2266C2.57298 31.7428 2.38987 32.3494 2.39087 32.9697V41.9694C2.38998 42.5898 2.57335 43.1966 2.91772 43.7126C3.2621 44.2287 3.75197 44.6309 4.32522 44.8682C13.0785 48.5171 12.6801 48.4433 13.532 48.4433C14.3838 48.4433 13.8686 48.5643 22.7387 44.8682C23.3117 44.6307 23.8012 44.2284 24.1453 43.7123C24.4893 43.1962 24.6724 42.5896 24.6713 41.9694V33.0345C24.6718 32.4175 24.4903 31.8141 24.1496 31.2998C23.8089 30.7855 23.324 30.3831 22.7557 30.143ZM12.803 27.9101C13.0334 27.8142 13.2805 27.7652 13.53 27.7659C13.7795 27.7667 14.0263 27.8171 14.2561 27.9144C22.9997 31.6275 22.3597 31.3369 22.5728 31.4822L13.5332 34.9228L4.49232 31.415C4.71269 31.2685 4.07699 31.5469 12.803 27.9095V27.9101ZM4.81319 43.6973C4.47195 43.5555 4.18047 43.3156 3.97569 43.008C3.77091 42.7004 3.66204 42.3389 3.66288 41.9694C3.66288 32.3231 3.57025 32.6718 3.88447 32.0858L13.11 35.6651C13.11 48.3119 13.2377 47.2088 12.8127 47.032L4.81319 43.6973ZM23.3999 41.9694C23.4005 42.3389 23.2916 42.7003 23.0868 43.0079C22.8821 43.3154 22.5907 43.5554 22.2495 43.6973L14.2524 47.032C13.8286 47.2094 13.9546 48.3173 13.9546 35.6669L23.1819 32.1554C23.487 32.7257 23.4023 32.3431 23.4023 41.9694H23.3999Z" fill="black"/>
<path d="M34.3276 48.1316C33.6011 47.2234 30.6557 45.7674 28.5639 45.1426C26.9595 44.6637 26.9535 45.214 25.9606 45.6172C26.7174 43.6599 25.38 40.8616 23.7974 39.3813C21.7359 37.4561 21.9956 36.6194 20.6492 36.8767C20.472 36.9342 20.3091 37.0287 20.1712 37.154C20.0333 37.2792 19.9236 37.4323 19.8494 37.6032C19.1035 38.9097 21.4459 40.5353 21.8534 41.5524C21.9449 41.7781 21.9721 42.0247 21.9321 42.265C21.892 42.5052 21.7862 42.7296 21.6263 42.9134C20.9603 43.3929 19.9832 42.8995 19.511 42.3818C19.0387 41.8642 18.7493 41.2267 18.3037 40.6981C17.2612 39.4618 15.9571 39.7942 15.4516 40.7526C15.1894 41.2509 15.6459 42.1142 15.9577 42.581C17.8345 45.3932 18.0924 45.8273 18.6216 46.3789C19.8324 47.6466 21.5785 48.1007 22.3752 47.953C22.8118 47.825 23.2303 47.6419 23.6206 47.4081C23.7683 47.5292 23.9215 47.6436 24.0795 47.7514C23.893 48.1621 23.7901 48.6058 23.7768 49.0567C23.9487 51.5716 28.5839 53.9213 30.1701 54.8083C31.2672 55.4228 32.182 53.8051 31.7691 53.1082C31.4258 52.5288 29.5072 52.3212 28.237 50.9844C27.4736 50.181 27.5559 49.4181 27.9464 49.047C28.2274 48.8545 28.5444 48.7209 28.8784 48.654C29.2123 48.5871 29.5564 48.5883 29.8898 48.6577C30.7416 48.9849 31.5416 49.4335 32.2649 49.9896C33.0138 50.5466 33.4594 50.7162 34.1417 50.0012C34.7042 49.4175 34.8725 48.8157 34.3276 48.1316Z" fill="#FDFE1F"/>
<path d="M34.9049 48.7309C34.8969 48.5044 34.8208 48.2856 34.6866 48.1031C34.5523 47.9206 34.3661 47.7828 34.1524 47.7077C32.5534 46.0197 29.3459 43.9371 26.8267 44.465C27.3298 41.7478 23.9473 38.7588 22.1358 37.2083C21.936 37.0388 22.0498 36.9353 21.62 36.7167C20.5774 36.1876 19.2727 37.221 19.5537 38.2485C19.9084 39.6409 21.4989 41.0903 21.5752 42.1656C21.6133 42.7377 21.33 42.926 20.8263 42.7861C19.6996 42.4689 18.1091 40.1223 17.4795 39.8359C16.0797 39.2062 14.6091 40.6835 15.4416 41.9791C15.6432 42.2752 16.7269 45.3859 19.2558 47.3026C20.4473 48.1866 21.8252 48.7617 23.1983 48.2156C23.1266 48.9151 23.2307 49.6214 23.5011 50.2705C23.7716 50.9196 24.1998 51.4908 24.747 51.9324C25.9167 52.9719 29.1134 54.5841 29.984 54.9147C30.1311 55.2344 30.8685 55.4759 31.6792 54.4516C32.4777 53.4441 31.9117 52.7261 31.5732 52.6849C30.9769 52.1449 28.6999 50.7863 28.2676 49.9411C28.0091 49.418 28.3887 49.0293 28.9227 48.9373C29.9053 48.7617 31.7682 50.0798 32.838 50.4781C33.4961 51.3536 35.0199 50.0083 34.9049 48.7309ZM16.0071 42.2528C15.8817 41.835 15.4949 41.1969 16.1063 40.6036C16.3183 40.4249 16.5738 40.3054 16.8468 40.2571C17.1198 40.2089 17.4007 40.2336 17.6611 40.3287C17.9214 41.582 19.7982 44.1926 21.4577 43.8547C20.9988 45.1116 21.6745 46.3479 22.608 47.3057C19.8412 48.0988 16.6082 42.9793 16.0071 42.2503V42.2528ZM28.2664 51.4008C30.834 53.2564 31.5054 52.6359 31.5714 53.1929C31.6011 53.4459 31.4836 53.6772 31.1833 54.0568C30.3666 55.0909 30.2364 54.7095 30.033 54.5751C27.6579 52.6159 24.0314 51.2797 24.2209 48.5904C25.0932 49.1508 26.1278 49.4037 27.1603 49.309C27.0022 50.1984 27.5562 50.8614 28.2664 51.4008ZM33.0214 50.2699C32.5607 49.5712 30.3242 47.793 28.8863 47.9002C28.9379 47.7028 28.9429 47.4961 28.9009 47.2965C28.8589 47.0969 28.771 46.9097 28.6442 46.7499C28.4268 46.5138 28.003 46.1487 28.3227 46.9557C28.3862 47.1395 28.3987 47.3371 28.3588 47.5274C28.3189 47.7177 28.2282 47.8936 28.0963 48.0364C26.6693 49.6886 21.4014 46.2716 22.1879 43.9062C22.5215 42.8134 23.3951 42.9484 23.4417 42.8225C23.4932 42.7377 23.0785 42.5077 22.582 42.6705C22.6774 42.0477 22.5284 41.4121 22.1661 40.8966C21.5562 40.0117 20.8194 39.2214 19.9793 38.5512C19.9577 38.3279 19.9942 38.1029 20.0851 37.8979C20.1759 37.6929 20.3182 37.5148 20.4981 37.3809C20.8244 37.1693 21.2194 37.0907 21.6018 37.1611C22.6311 38.7195 25.7884 41.4258 25.8338 43.8602C25.849 44.0751 25.8192 44.2908 25.7463 44.4934C25.6733 44.6961 25.5587 44.8813 25.41 45.0371C25.0745 44.5102 24.7697 43.9644 24.497 43.4025C24.1137 42.8394 23.6349 42.7637 23.5888 42.8879C23.5283 43.0089 23.7487 43.2511 23.8752 43.7143C23.9908 44.4898 24.3095 45.2208 24.7991 45.8333C25.0652 46.1798 25.4217 46.4463 25.8294 46.6033C26.2371 46.7603 26.6802 46.8018 27.11 46.7233C27.733 46.5562 28.3039 46.4781 27.776 46.1838C27.3322 45.9217 26.8424 46.1675 26.3193 45.8321C26.2412 45.7848 26.2539 45.8012 26.2848 45.7546C28.9257 44.4505 32.3924 47.1737 34.1082 48.0594C34.7299 48.8889 33.7558 50.4805 33.0214 50.2723V50.2699Z" fill="black"/>
<path d="M101.341 29.5135C102.138 29.0291 102.979 28.6247 103.819 28.2203C106.836 26.7672 107.731 26.9144 109.878 27.8316C111.419 28.4903 117.272 30.9193 117.869 32.4546C118.051 32.9232 118.006 32.8373 118.045 38.8831C118.058 40.8943 117.772 40.769 117.578 41.8037C117.296 43.3039 117.749 43.83 115.982 44.7473C113.658 46.0585 111.116 46.9403 108.48 47.3506C107.703 47.5796 106.888 47.649 106.084 47.5548C105.28 47.4605 104.504 47.2045 103.801 46.8021C102.67 46.2669 98.1548 43.6581 97.553 42.5683C97.1898 41.9066 97.257 41.6541 97.1056 35.753C96.9706 30.4531 96.4851 32.4565 101.341 29.5135Z" fill="#FFC5F6"/>
<path d="M116.778 30.1429C108.276 26.537 107.939 26.072 106.337 26.7404L98.3454 30.0702C97.7725 30.308 97.2831 30.7104 96.9391 31.2266C96.5952 31.7427 96.4122 32.3494 96.4135 32.9696V41.9693C96.4122 42.5895 96.5952 43.1961 96.9391 43.7122C97.283 44.2283 97.7725 44.6306 98.3454 44.8681C107.099 48.5177 106.7 48.4432 107.552 48.4432C108.444 48.4432 108.279 48.4038 116.759 44.8681C117.332 44.6305 117.821 44.2281 118.165 43.7121C118.509 43.1961 118.692 42.5895 118.691 41.9693V33.0344C118.692 32.4178 118.511 31.8146 118.171 31.3004C117.83 30.7861 117.346 30.3835 116.778 30.1429ZM106.825 27.9101C107.055 27.8146 107.303 27.7659 107.552 27.7666C107.801 27.7673 108.048 27.8175 108.278 27.9143C117.024 31.6232 116.383 31.335 116.597 31.4779L107.556 34.9209L98.5155 31.4131C98.7304 31.2708 98.0281 31.5784 106.825 27.9101ZM98.8334 43.6954C98.492 43.5538 98.2004 43.314 97.9955 43.0063C97.7907 42.6987 97.682 42.3371 97.683 41.9675C97.683 32.2994 97.594 32.6645 97.9046 32.0839L107.131 35.6632C107.131 48.31 107.258 47.2069 106.833 47.0301L98.8334 43.6954ZM117.42 41.9675C117.421 42.3371 117.312 42.6987 117.108 43.0063C116.903 43.314 116.611 43.5538 116.27 43.6954L108.272 47.0301C107.848 47.2075 107.975 48.3154 107.975 35.665L117.201 32.1535C117.51 32.7256 117.424 32.3436 117.424 41.9693L117.42 41.9675Z" fill="black"/>
<path d="M105.756 39.7577C105.625 39.3575 104.885 38.4258 104.32 38.4258C103.169 38.4185 102.049 41.468 100.612 41.5637C100.41 41.5828 100.207 41.5416 100.029 41.4451C99.8502 41.3486 99.7044 41.2013 99.6099 41.0218C99.0996 39.886 101.845 37.3287 101.547 36.4872C101.297 36.1394 100.993 35.834 100.646 35.5827C100.106 35.3029 99.5718 35.7383 99.1583 36.1318C94.4898 40.5702 95.269 39.6651 94.9451 41.9669C94.8355 42.4403 94.8579 42.9347 95.0099 43.3963C93.9298 43.2705 92.8358 43.3404 91.7805 43.6028C91.1987 43.811 90.8809 44.0423 88.5609 45.5299C87.9857 45.8992 86.8947 46.2473 86.6925 47.153C86.5375 47.8444 87.0612 49.0904 87.7926 49.025C88.3944 48.9717 88.1903 48.4377 90.8197 47.5187C91.2823 47.3179 91.7839 47.2231 92.2879 47.2414C92.5393 47.2571 92.7788 47.3541 92.9702 47.518C93.1616 47.6818 93.2944 47.9035 93.3486 48.1495C93.4237 48.8185 91.97 50.7105 90.6787 51.009C90.2712 51.1034 89.7651 51.1301 89.5738 51.5C89.3976 51.8445 89.6216 52.2507 89.8389 52.571C90.4946 53.5397 90.9226 53.4476 91.4306 53.1346C95.5651 50.5918 95.8502 50.4659 96.274 49.9737C96.782 49.3876 97.606 47.5284 97.4776 46.4901C97.6035 46.3411 97.7495 46.2104 97.9105 46.1008C98.8695 45.5989 99.8691 47.4236 102.608 44.9105C103.38 44.2021 103.984 43.2668 105.168 41.5976C105.559 41.0479 105.965 40.3928 105.756 39.7577Z" fill="#FDFE1F"/>
<path d="M106.153 39.6513C106.123 39.278 105.961 38.9276 105.697 38.6627C105.432 38.3978 105.082 38.2357 104.709 38.2055C104.451 38.1732 104.189 38.209 103.948 38.3092C103.708 38.4095 103.499 38.5708 103.34 38.777C102.787 39.3377 100.648 41.9404 99.9538 41.2557C98.6218 40.2494 103.449 36.8814 101.217 35.3685C100.392 34.7957 99.3478 35.2565 99.3132 35.6367C97.3123 37.3101 94.6206 39.7373 94.4837 42.3382C94.442 43.098 94.7053 42.9908 94.2688 42.9279C91.7648 42.5979 88.6989 44.6352 87.201 46.2153C87.0383 46.2603 86.8914 46.3501 86.7772 46.4745C85.6312 47.6787 87.6721 50.107 88.5124 48.987C89.5737 48.5874 91.4511 47.2712 92.4265 47.4462C92.9714 47.5406 93.3346 47.9335 93.0816 48.45C92.6511 49.2915 90.365 50.6616 89.7759 51.1938C89.4072 51.2386 88.8763 51.9578 89.6694 52.9604C90.5103 54.0193 91.2362 53.7124 91.3646 53.4242C93.2218 52.6398 94.9797 51.6383 96.6015 50.4406C97.1489 49.999 97.5773 49.4277 97.8479 48.7785C98.1184 48.1294 98.2226 47.4229 98.1508 46.7233C99.5227 47.2682 100.901 46.6961 102.093 45.8109C103.839 44.4881 104.64 43.0302 105.616 41.0692C106.03 40.2258 106.173 40.1144 106.153 39.6513ZM88.332 48.7805C87.6 48.9876 86.6229 47.3917 87.2464 46.5683C89.0924 45.6154 92.4422 42.9618 95.0698 44.264C95.1007 44.3095 95.1128 44.2937 95.0353 44.3415C94.5043 44.6697 94.0206 44.4311 93.5786 44.6927C93.4085 44.7877 93.3552 44.8888 93.3801 44.9488C93.4049 45.0087 93.5102 45.0354 93.6489 45.0699C94.2154 45.315 94.8521 45.3439 95.4385 45.151C97.141 44.3845 97.3153 42.7493 97.4782 42.2262C97.6047 41.7636 97.8263 41.5239 97.7652 41.401C97.7216 41.2756 97.2421 41.3525 96.857 41.915C96.5832 42.4764 96.2784 43.0221 95.944 43.5496C95.9017 43.5232 95.859 43.4976 95.8157 43.4727C94.4613 41.1055 98.3682 37.548 99.5155 36.0036C99.8018 35.6215 99.7062 35.676 99.863 35.6585C100.031 35.6288 100.204 35.6331 100.37 35.6712C100.537 35.7093 100.694 35.7804 100.833 35.8803C100.972 35.9802 101.089 36.1069 101.178 36.2528C101.267 36.3988 101.325 36.5611 101.351 36.7301C101.402 37.1993 101.476 36.8899 100.369 37.9724C99.6668 38.6917 98.8634 39.5889 98.7448 40.5861C98.6679 41.4113 98.9754 41.1473 98.4905 41.1309C98.063 41.1079 97.885 41.2932 97.9111 41.3368C97.9383 41.4119 98.1327 41.3864 98.4039 41.5021C99.1159 41.8012 99.6305 42.9648 98.8658 44.172C98.2168 45.217 96.4732 46.7003 94.9166 46.9382C93.3504 47.2137 92.7286 46.1615 93.0295 45.4707C93.1373 45.1994 93.3068 45.0729 93.2668 45.0063C93.2021 44.8307 92.2134 45.2872 92.4652 46.4169C91.0528 46.3049 88.7915 48.0819 88.332 48.7805ZM91.1006 53.2849C90.6889 53.2662 90.4534 52.9253 90.1707 52.5675C89.742 52.0226 89.7269 51.8137 89.8335 51.4674C90.7174 51.3887 94.5388 49.788 94.198 47.8197C95.2303 47.9144 96.2646 47.6614 97.1367 47.1011C97.3396 50.0186 92.7256 51.6176 91.1 53.2849H91.1006ZM98.7454 45.8121C99.6808 44.8519 100.352 43.6144 99.8957 42.3612C101.174 42.6209 102.378 41.2629 103.077 40.1665C103.975 38.7395 103.4 38.8618 104.004 38.774C105.136 38.5978 105.811 39.4545 105.509 40.2924C105.055 41.6565 101.301 46.5483 98.7454 45.8121Z" fill="black"/>
<path d="M45.6292 83.2548C45.5524 82.4999 45.2902 81.7709 45.2315 81.0148C45.1837 80.4021 45.2702 79.7869 45.2726 79.1724C45.2829 76.3439 43.4364 74.5972 41.5263 74.7141C41.2399 73.189 40.8651 71.5162 39.6167 70.5941C39.0859 70.1758 38.463 69.8901 37.7997 69.7606C37.1364 69.6311 36.4517 69.6615 35.8025 69.8494C35.613 67.1389 33.8506 64.3213 31.0469 64.7299C27.2327 65.2863 19.9185 74.8745 18.388 77.9283C17.0348 80.6297 16.4064 83.8645 17.2062 86.7233C15.8924 84.7115 13.2261 86.9552 13.1789 91.2217C13.1448 91.6708 13.2044 92.122 13.354 92.5468C13.5035 92.9716 13.7398 93.3607 14.0477 93.6894C14.9911 95.04 16.0302 96.3212 17.1571 97.523C18.411 98.7133 22.2464 101.318 24.8667 102.093C28.7675 103.247 31.8079 101.691 32.3891 100.318C32.5708 99.8878 32.5708 99.5814 32.7524 97.5C32.822 96.6893 32.7754 95.9131 32.001 95.6613C37.5867 94.2482 39.2722 88.8587 39.3927 88.7279C40.0566 88.1348 40.8667 87.7294 41.7394 87.5534C44.2216 87.4287 45.8799 85.7286 45.6292 83.2548ZM20.7376 91.8041C21.9835 92.8729 23.3117 93.8417 24.7099 94.7017C23.2123 93.9994 21.8637 93.0156 20.7376 91.8041ZM25.6931 95.1945C27.1168 95.8043 28.6663 96.0626 30.2108 95.9477C28.5223 96.6415 27.5469 96.1026 25.6931 95.1957V95.1945Z" fill="white"/>
<path d="M45.3022 80.3275C46.8212 78.2206 45.1151 74.3779 42.8006 74.1775C42.6843 71.5318 39.4102 68.6972 36.4236 69.3625C36.4102 67.985 35.8686 66.6652 34.9105 65.6754C33.9523 64.6856 32.6508 64.1013 31.2744 64.0432C29.1905 63.9651 27.7563 65.2904 26.4255 66.893C21.9254 72.4442 15.0756 78.4294 16.2731 85.4796C12.6405 86.2231 10.3671 91.5757 15.437 96.7098C18.8195 100.029 25.8328 104.809 30.27 102.973C31.0534 102.656 31.757 102.17 32.3304 101.55C32.9038 100.929 33.3327 100.189 33.5865 99.3833C33.9082 98.2616 33.796 97.0599 33.2723 96.0171C36.4145 94.7136 38.6086 91.5485 40.2408 88.5425C41.9669 88.0212 43.9043 88.034 45.2834 86.4635C46.7994 84.778 46.6917 82.1565 45.3022 80.3275ZM42.2962 76.4588C42.4785 76.0907 42.6147 75.702 42.7019 75.3006C43.6954 75.817 44.7603 77.8482 44.4722 79.449C43.6019 78.7127 42.5691 78.1939 41.4589 77.9354C40.9873 77.8131 41.491 78.0686 42.2962 76.4588ZM41.3596 74.4275C41.3143 75.6688 40.7886 76.8438 39.8933 77.7047C38.3953 77.6155 36.8932 77.7855 35.4531 78.2072C29.3921 79.9805 32.2037 81.0994 29.9237 78.7164C32.9642 76.3904 36.0028 73.7198 36.3903 70.4547C38.7726 70.1502 41.3064 72.5374 41.3596 74.4275ZM32.4653 99.0516C32.2364 99.6594 31.8809 100.212 31.4222 100.672C30.9636 101.131 30.4123 101.489 29.805 101.719C26.0362 103.188 19.3105 98.4219 16.4481 95.6799C12.0926 91.3911 13.7933 87.2094 16.4911 86.4592C18.0827 92.2599 25.8752 98.2705 32.326 96.3525C32.7172 97.201 32.7671 98.1674 32.4653 99.0516ZM44.25 85.5747C42.7842 87.3383 39.3399 86.5755 35.1334 90.2928C34.3639 90.9757 34.0267 91.4395 34.0903 91.5103C34.2549 91.695 35.895 90.2298 38.7842 89.0632C36.71 92.2229 34.7205 94.7584 31.1037 95.3518C25.0791 96.2387 17.5839 89.8054 17.6087 83.8862C17.5923 78.7521 22.4588 73.8027 25.7953 69.8917C27.9615 67.3828 29.8553 63.8937 33.2602 66.0309C35.2581 67.2593 36.0089 70.4777 33.9504 73.3311C32.5516 75.0722 30.959 76.6482 29.2032 78.0286C26.322 75.478 23.149 75.7244 23.1435 76.1094C23.1344 76.7046 26.144 76.1815 30.0418 80.6804C29.3613 81.0994 24.7491 84.2912 24.9979 84.6393C25.1438 84.8446 27.7157 83.159 30.1205 81.8652C42.6347 75.1395 46.7589 82.5572 44.25 85.5747Z" fill="black"/>
<path d="M26.2409 73.4579C26.3402 75.7682 26.5878 78.3298 28.2994 79.8809C29.7355 81.1801 31.8109 81.4029 33.6502 81.9999C38.229 83.4862 37.9584 85.4708 56.177 91.8466C60.1952 93.253 60.9169 92.8401 63.7176 91.5887C67.6601 89.8263 71.3793 88.4531 75.0996 86.2609C76.9704 85.1578 79.3298 84.47 81.2387 83.4341C84.4747 81.6784 88.3355 81.2982 91.5055 79.425C92.5953 78.7814 92.9204 77.7298 93.2831 76.5189C93.5101 75.5745 93.5174 74.59 93.3031 73.6419C92.5015 68.5902 93.7123 63.5416 93.268 58.4457C92.7564 52.573 94.3468 46.6882 93.1898 40.9094C92.9283 40.2313 92.498 39.6311 91.9396 39.1658C91.3384 38.5979 90.4073 38.5918 89.6644 38.2286C88.9954 37.9818 88.3578 37.6566 87.7652 37.2599C85.7346 35.5938 80.5001 35.3153 69.6919 29.9657C67.5796 28.9201 63.3349 27.2352 61.0004 26.9022C57.3448 26.3803 56.0008 27.8915 52.6207 29.3784C45.2393 32.6247 40.5787 34.6499 36.5205 36.5649C32.3727 38.5216 27.6492 38.4284 26.9232 42.1596C26.7222 43.1889 26.2482 52.5034 26.1786 54.4093C25.9476 60.7571 25.9684 67.1117 26.2409 73.4579Z" fill="#FFC5F6"/>
<path d="M50.2302 47.176C50.6645 47.5488 51.1608 47.8425 51.6965 48.0436C52.2087 48.218 52.2184 47.0205 52.2487 46.7117C52.2977 46.2049 52.4303 45.7939 52.2142 45.7757C51.6693 45.7279 51.3902 46.1069 50.9912 46.3932C50.7908 46.5343 50.1067 46.8636 50.2302 47.176Z" fill="#92FCFF"/>
<path d="M64.4862 84.2455C63.2299 84.3823 62.9574 84.8001 62.9011 85.6083C62.8206 86.7586 63.1754 88.0107 63.3909 88.185C63.4703 88.2301 63.5588 88.2567 63.6499 88.263C63.7409 88.2693 63.8322 88.2551 63.917 88.2213C67.6889 87.3096 67.5981 87.1679 67.5987 86.1429C67.5987 85.7264 67.5932 84.1777 67.3165 83.8629C66.7674 83.2363 64.5921 84.03 63.8305 84.4683L64.4862 84.2455Z" fill="#92FCFF"/>
<path d="M85.566 47.916H85.6193C85.5479 47.3148 86.5032 47.1804 86.7496 47.1108C86.861 47.0793 89.4444 45.9308 89.9064 46.3383C90.1903 46.5883 89.933 47.2937 89.9669 48.0069C90.0607 49.8994 92.8354 52.458 88.4624 53.5768C87.0233 53.9449 85.9917 54.4093 86.2459 53.2868C86.6498 51.5099 84.518 50.7258 85.566 47.9166V47.916Z" fill="#92FCFF"/>
<path d="M94.1477 42.0348C94.1817 41.2377 93.9689 40.4495 93.5384 39.7778C93.1079 39.106 92.4808 38.5834 91.7424 38.2812L61.8045 26.3712C59.7103 25.5381 61.0586 25.463 28.5277 38.7613C27.7803 39.0534 27.1345 39.5577 26.6698 40.212C26.2051 40.8663 25.9418 41.6421 25.9123 42.4441V76.9354C25.8804 77.7191 26.0862 78.4942 26.5027 79.1589C26.9193 79.8236 27.527 80.3469 28.2462 80.66L58.1853 93.2414C58.683 93.449 59.2173 93.5546 59.7566 93.5521C60.2959 93.5496 60.8292 93.439 61.325 93.2269L91.6013 80.1775C92.3299 79.8751 92.9566 79.3704 93.4073 78.723C93.8579 78.0755 94.1136 77.3125 94.1441 76.5243L94.1477 42.0348ZM92.6535 66.7569L83.0212 70.8914V59.7969L92.6535 55.6279V66.7569ZM70.8302 76.1459V65.0508L81.9877 60.2401C82.2408 60.3388 82.1754 58.2179 82.1754 71.254L70.8302 76.1459ZM82.1754 72.1773V82.6288L70.8302 87.5195V77.0674L82.1754 72.1773ZM59.7557 80.9203C48.7176 76.2839 49.8207 76.9311 49.8207 76.3318L60.0094 72.167L69.9554 76.1235C69.9996 76.0139 69.9845 75.9649 69.9845 76.511L59.7557 80.9203ZM60.3733 36.0708L70.3023 40.5552C67.9962 41.6371 65.1671 42.9769 60.6899 45.1044C59.7618 45.5445 61.5781 46.07 49.8201 40.7174L60.3733 36.0708ZM48.7902 40.2482C45.6242 38.8074 42.4517 37.3808 39.2729 35.9684L49.9605 31.5997L59.1939 35.6663L48.7902 40.2482ZM61.2118 35.521L70.3865 31.3787L81.0668 35.6264C76.5806 37.6527 74.2763 38.6989 71.3158 40.0823L61.2118 35.521ZM82.1754 59.2399C81.8884 59.361 83.0987 59.7739 71.6246 55.209V41.1509L82.1754 45.915V59.2399ZM69.9845 75.2232L60.4302 71.4224V60.8273L69.9845 64.6276V75.2232ZM49.8382 51.6291C50.1972 50.8117 49.0257 51.8682 58.0854 47.313C58.6908 47.0103 59.1981 46.7433 59.605 46.5441V59.835C59.605 59.9725 60.366 59.6044 49.8207 63.915C49.8207 51.089 49.7777 51.6024 49.8382 51.6291ZM60.452 59.4391V46.1445C63.1346 44.8731 68.1143 42.5168 70.7788 41.2666V55.215L60.452 59.4391ZM60.4302 59.8901L60.4435 59.924L60.4302 59.9186V59.8901ZM49.8207 64.8286L59.5844 60.8376V71.4272L49.8207 75.4176V64.8286ZM70.9168 64.093L60.9666 60.1353L71.2014 55.9518L80.8737 59.7999L70.9168 64.093ZM71.6004 41.14C70.9344 41.14 70.9277 41.1969 71.3194 41.0135L71.6004 41.14ZM59.0553 45.8823C57.2039 46.7953 53.5895 48.6782 49.4235 50.5223L38.4913 45.7098L48.7836 41.1763C53.4102 43.2778 57.3988 45.1171 59.0553 45.8823ZM48.9749 51.2489V64.3746L37.8622 59.7043V46.3546L48.9749 51.2489ZM37.0164 59.3489L27.4258 55.3179C27.5251 41.2605 27.4864 42.2716 27.5984 41.8344L37.0164 45.9822V59.3489ZM27.3786 56.2327L37.0164 60.2661V71.3648L27.3786 67.2982V56.2327ZM37.8622 60.6215L48.9749 65.2918C48.9749 76.718 48.9501 75.9098 48.9749 75.9703C48.9749 76.5721 50.6519 77.0958 37.8622 71.7202V60.6215ZM48.9749 77.3077V87.7647L37.8622 83.095V72.6381L48.9749 77.3077ZM92.6995 54.704L83.0212 58.8754V45.7564L92.7123 41.381C92.8261 41.835 92.7976 40.8736 92.6995 54.704ZM92.3708 40.6072C81.4628 45.5324 82.5283 44.9663 82.6295 45.1921L72.3299 40.5412C75.1433 39.2317 77.5336 38.1486 82.1566 36.0611C92.1105 40.0188 91.7878 39.7275 92.3708 40.6072ZM59.3652 27.7558C60.6366 27.2369 60.7335 27.5385 69.2943 30.944L60.0488 35.1214L51.0485 31.1547L59.3652 27.7558ZM38.1867 36.4134C41.3821 37.8292 44.5707 39.26 47.7525 40.7059L37.4427 45.2466L27.9435 41.0625C28.5192 40.2058 28.1814 40.5031 38.1867 36.4128V36.4134ZM27.3048 76.9457V68.213L37.0189 72.2827V82.7396L28.8183 79.2953C28.3602 79.0997 27.9711 78.7714 27.7013 78.3526C27.4315 77.9337 27.2934 77.4437 27.3048 76.9457ZM49.8207 88.1201V77.6637L59.381 81.6977V92.042C58.9469 91.9736 59.5669 92.2164 49.8207 88.1201ZM60.2274 92.0342V81.6208L69.9875 77.4343V87.884C59.9271 92.2182 60.6397 91.9597 60.2274 92.0342ZM91.0171 78.8183L83.0212 82.2644V71.8129L92.5766 67.6808V76.5134C92.567 77.0071 92.4146 77.4875 92.1378 77.8965C91.8611 78.3056 91.4718 78.6257 91.0171 78.8183Z" fill="black"/>
<path d="M67.7927 84.5844C67.8103 84.2299 67.72 83.8784 67.5336 83.5763C67.4187 83.444 67.2683 83.3473 67.1002 83.2978C66.932 83.2482 66.7533 83.2478 66.5849 83.2966C66.7429 80.996 62.9808 81.3024 63.3513 84.2611C62.3336 84.7739 62.4983 86.1185 62.6175 87.3215C62.6179 87.5702 62.6932 87.8129 62.8336 88.0181C62.974 88.2233 63.173 88.3814 63.4046 88.4718C63.9794 88.5608 64.5676 88.4688 65.0877 88.2085C67.424 87.3954 68.021 87.5165 67.7927 84.5844ZM64.0482 83.3457C64.3509 82.5586 65.9329 81.9017 66.0207 83.4522C63.473 84.1915 64.3533 83.9299 63.8859 84.0577C63.9077 83.8143 63.9622 83.5745 64.0482 83.3457ZM64.8958 87.5601C64.1729 87.7689 63.6649 87.9881 63.4427 87.6176C63.3217 87.419 63.0353 85.3497 63.6244 84.9537C63.737 84.8829 66.393 84.0456 66.5056 84.0123C67.1274 83.7743 67.1189 84.0014 67.2061 84.6461C67.5506 87.1635 67.1419 86.8747 64.8982 87.5601H64.8958Z" fill="black"/>
<path d="M65.3512 85.1923C64.8574 85.179 64.9397 86.7524 65.4304 86.6871C65.9212 86.6217 65.8462 85.2062 65.3512 85.1923Z" fill="black"/>
<path d="M52.5197 45.4678C52.2303 45.265 51.8083 45.5326 51.3143 45.8238C50.1258 43.8822 49.4465 42.0762 48.783 44.2097C48.6661 44.5839 48.3089 45.443 48.3404 45.5035C48.3458 45.5132 48.3368 45.5265 48.3204 45.518C45.2545 43.1944 44.5462 43.1187 47.879 46.0599C48.0353 46.1628 48.1485 46.382 48.4845 46.356C48.6007 46.3436 48.7104 46.2966 48.7995 46.221C48.8886 46.1454 48.9529 46.0448 48.984 45.9322C49.254 44.9514 49.2382 45.2341 49.5234 44.3338L50.7034 46.2549C49.2697 47.2587 49.7656 47.5499 51.1272 48.1274C52.2805 48.6239 52.3804 48.7595 52.7128 46.3499C52.7461 46.1102 52.8066 45.6682 52.5197 45.4678ZM51.8331 47.6679C51.8119 47.7612 51.8785 47.789 51.5134 47.6074C51.4529 47.5771 50.6101 47.1878 50.5496 47.1672C51.0295 46.7641 51.5497 46.4115 52.1019 46.115C52.0844 46.3148 51.9814 46.9971 51.8331 47.6673V47.6679Z" fill="black"/>
<path d="M91.0363 50.6344C90.9152 49.5652 90.0597 49.1554 90.0609 47.089C90.0573 45.8782 90.4242 45.5506 87.7876 46.5066C86.2698 47.0606 85.5868 47.2773 85.3283 48.4664C84.9081 50.3481 86.0082 51.453 86.1493 52.1765C86.4883 53.8111 84.8997 55.0631 88.4396 53.8517C90.064 53.3044 91.2137 52.3508 91.0363 50.6344ZM90.2674 52.5446C89.5568 52.6754 88.8615 52.8783 88.192 53.15C85.7297 53.9921 86.323 54.3978 86.6954 53.2711C87.0641 52.0499 86.6887 51.5111 86.3182 50.7228C85.9197 49.7345 85.7638 48.6652 85.8635 47.6043C86.3557 47.8137 88.8241 47.1199 89.7952 46.302C89.5608 46.8226 89.4443 47.3886 89.4539 47.9595C89.4635 48.5304 89.5991 49.0921 89.8509 49.6046C90.5719 51.0873 90.4672 50.7573 90.2692 52.5446H90.2674Z" fill="black"/>
<path d="M88.9319 48.424C88.8411 48.1595 86.5066 48.9629 86.5974 49.2274C86.6882 49.492 89.0227 48.6886 88.9319 48.424Z" fill="black"/>
<path d="M89.2008 49.6777C89.113 49.4126 86.9328 50.1324 87.0212 50.3976C87.1096 50.6628 89.2886 49.9435 89.2008 49.6777Z" fill="black"/>
<path d="M88.4531 50.9009C87.2241 51.2841 86.655 51.9028 88.5791 51.3047C90.4904 50.7065 89.6852 50.5152 88.4531 50.9009Z" fill="black"/>
<path d="M55.0617 5.42278C55.8591 4.93843 56.7 4.53401 57.5397 4.12958C60.5572 2.67655 61.452 2.82367 63.5989 3.7415C65.1403 4.3996 70.993 6.82919 71.5905 8.36395C71.7722 8.83255 71.7268 8.74719 71.7661 14.7924C71.7788 16.8042 71.4931 16.6783 71.2987 17.713C71.0172 19.2132 71.4694 19.7394 69.7028 20.6566C67.3788 21.9677 64.8376 22.8496 62.2009 23.2599C61.4244 23.4887 60.6095 23.558 59.8054 23.4637C59.0014 23.3693 58.2247 23.1132 57.5222 22.7108C56.3912 22.1756 51.876 19.5668 51.2742 18.4776C50.9109 17.8153 50.9781 17.5628 50.8267 11.6617C50.6917 6.36059 50.2062 8.36637 55.0617 5.42278Z" fill="#FFC5F6"/>
<path d="M70.4835 6.26916C62.0106 2.67715 61.6564 2.19463 60.0423 2.86665L52.0506 6.19651C51.4777 6.43434 50.9883 6.83689 50.6443 7.35316C50.3004 7.86943 50.1175 8.47618 50.1187 9.09652V18.0962C50.1177 18.7163 50.3008 19.3228 50.6447 19.8389C50.9886 20.3549 51.4779 20.7573 52.0506 20.995C60.7864 24.6373 60.4056 24.5701 61.2574 24.5701C62.1092 24.5701 61.6618 24.6645 70.4642 20.995C71.0371 20.7574 71.5266 20.3551 71.8706 19.8391C72.2146 19.323 72.3977 18.7164 72.3967 18.0962V9.1613C72.3973 8.54457 72.2162 7.94133 71.8759 7.42696C71.5356 6.91258 71.0513 6.50988 70.4835 6.26916ZM60.5309 4.03816C60.7614 3.94281 61.0085 3.89414 61.2579 3.89497C61.5073 3.8958 61.7541 3.94612 61.9839 4.043C70.7148 7.75125 70.0912 7.46367 70.3025 7.60595L61.261 11.049L52.2196 7.54178C52.4381 7.39647 51.7837 7.68466 60.5309 4.03816ZM52.5392 19.8241C52.198 19.6822 51.9066 19.4423 51.7018 19.1347C51.4971 18.8272 51.3882 18.4657 51.3889 18.0962C51.3889 8.42752 51.2999 8.7932 51.6105 8.21259L60.8366 11.7919C60.8366 24.4332 60.9644 23.3356 60.5388 23.1588L52.5392 19.8241ZM71.1259 18.0962C71.127 18.4658 71.0182 18.8274 70.8134 19.135C70.6086 19.4427 70.317 19.6825 69.9756 19.8241L61.9779 23.1588C61.5541 23.3362 61.68 24.4441 61.68 11.7937L70.9073 8.28221C71.2149 8.85132 71.1295 8.4699 71.1295 18.0962H71.1259Z" fill="black"/>
<path d="M116.541 86.9777C116.054 85.6161 114.858 84.654 113.716 83.7659C113.325 83.3744 112.797 83.15 112.243 83.1399C112.032 84.6589 112.445 82.2432 110.916 78.245C110.31 76.6636 109.167 74.2915 107.848 73.0915C107.602 72.8675 104.618 70.2073 102.596 68.5418C99.1654 65.7144 95.4971 62.7787 91.0987 62.1327C90.0946 61.9505 89.0621 62 88.08 62.2774C85.2194 63.1958 85.7927 65.4862 85.2042 66.7636C84.8765 67.3192 84.5109 67.8516 84.1102 68.3571C82.3575 71.107 84.1641 75.0858 88.252 75.9492C87.6974 77.4627 85.0626 75.707 85.1746 79.6163C85.3217 84.7497 86.6881 84.5481 88.4614 86.6168C89.3157 87.6134 89.8243 88.8569 90.5472 89.9467C92.0541 92.231 95.9524 95.2642 97.2069 95.7503C99.9119 96.7989 103.358 95.1945 105.804 94.0279C103.29 95.8817 102.024 95.3435 100.252 96.3001C99.2072 96.8637 98.7888 97.3263 99.9119 99.0245C105.6 107.636 118.526 92.5258 116.541 86.9777Z" fill="white"/>
<path d="M117.211 88.3822C117.029 85.7746 115.375 83.236 112.881 82.607C113.09 69.9741 90.3941 56.7225 85.7184 62.7961C85.3252 63.3346 85.0613 63.9565 84.9473 64.6134C84.8333 65.2704 84.8721 65.9448 85.0609 66.5843C83.129 67.513 82.5472 70.1854 83.1707 72.348C82.7651 72.8846 82.4766 73.5004 82.324 74.1556C82.1714 74.8107 82.1581 75.4907 82.285 76.1513C82.4119 76.8118 82.6759 77.4384 83.0599 77.9907C83.4438 78.5429 83.9392 79.0086 84.5142 79.3576C83.7271 81.8508 84.6353 83.7046 86.3662 85.6928C88.6723 88.3398 87.3004 86.182 91.3156 91.3615C93.3208 93.9563 95.5209 96.4247 98.8229 96.8152C99.4737 101.7 104.594 103.543 108.888 101.09C112.052 99.3096 117.488 93.5216 117.211 88.3822ZM85.4466 67.5439C86.7912 70.0867 89.6628 70.9712 92.1099 71.8122C93.6821 72.3631 95.2242 72.9963 96.7299 73.709C95.8218 74.8272 95.0255 76.0317 94.3524 77.3052C90.4329 75.5035 90.7313 76.8354 87.3428 75.044C83.4922 73.0025 83.8706 68.8559 85.4484 67.5439H85.4466ZM83.7877 73.7798C84.5836 75.0135 85.7744 75.9408 87.1654 76.4104C86.254 76.7598 85.4903 77.4117 85.0022 78.257C84.432 77.6784 84.021 76.9624 83.8089 76.1784C83.5967 75.3943 83.5907 74.5687 83.7913 73.7816L83.7877 73.7798ZM94.8979 93.2208C93.1627 91.5915 91.7182 89.2855 90.0993 87.4492C88.8049 85.9768 86.6514 84.2677 85.9333 82.3551C85.3279 80.821 85.9164 78.7534 87.2096 77.9621C89.0259 76.7834 92.1868 77.6897 94.1902 78.5833C100.394 81.4016 102.879 87.9178 103.347 87.672C103.432 87.6284 103.152 86.8177 102.434 85.4416C101.147 83.032 100.226 82.1723 100.527 82.3636C103.195 84.0431 105.637 84.9215 105.753 84.6509C105.92 84.2671 98.6952 80.0194 98.0419 79.6622C97.1848 78.9079 96.239 78.2607 95.2254 77.7351C98.3955 72.621 100.88 70.6134 100.606 70.3028C100.463 70.1164 98.8102 71.211 96.9618 73.4511C96.3169 73.0173 95.6451 72.6249 94.9506 72.2759C92.771 71.0009 90.9426 70.5977 89.0973 69.5303C87.2035 68.4254 85.6911 66.6315 86.2881 64.5416C87.0443 61.9679 90.1356 62.7326 92.6917 63.3501C96.992 64.5499 100.928 66.7964 104.148 69.8887C107.638 73.2252 111.271 77.3131 111.398 82.1087C111.651 90.2457 101.591 99.6425 94.8997 93.2226L94.8979 93.2208ZM114.756 92.622C113.563 94.8784 110.743 98.339 108.168 99.8369C104.816 101.812 100.781 100.745 99.8539 96.8703C106.121 96.8182 112.148 90.1549 112.819 83.6538C115.142 84.5655 117.201 88.0619 114.758 92.6238L114.756 92.622Z" fill="black"/>
<path d="M73.8677 78.918C73.6582 79.2571 73.2622 79.719 73.5105 79.7941C75.6942 80.4601 77.697 79.3352 82.4532 81.1684C84.8223 82.0814 87.56 83.7494 89.1075 85.9216C90.3262 87.6338 90.5061 88.9203 90.6931 88.5401C91.2816 87.3456 90.8627 87.3293 92.0426 85.9525C93.3746 84.3954 94.9118 83.819 97.0368 83.0519C99.3187 82.2285 101.777 81.2041 104.246 81.4645C105.457 81.5922 104.852 80.9801 104.125 77.3312C103.301 73.2107 104.629 69.945 107.763 67.737C108.076 67.5039 108.409 67.2985 108.757 67.1231C109.102 67.0044 109.424 66.8288 109.71 66.6036C110.51 65.8813 103.837 65.5998 100.075 61.248C99.0462 60.0269 98.2368 58.6364 97.6834 57.1383C97.3746 56.3967 97.1585 55.5878 96.8043 54.8692C96.2171 53.6783 96.3932 51.9183 95.9368 52.3633C94.3063 53.9532 93.9213 55.7658 91.1581 56.7139C86.2063 58.414 80.8955 59.3809 75.7009 58.7119C78.5603 65.2759 75.7511 75.8812 73.8677 78.918Z" fill="white"/>
<path d="M110.216 66.4537C110.34 65.9941 105.265 64.8741 101.134 60.8147C96.53 56.2879 96.6371 51.5214 96.2024 51.5389C95.9845 51.4511 95.1127 53.4987 92.7436 55.1049C92.2153 55.4515 91.6625 55.7592 91.0896 56.0258C82.6941 60.1039 75.7184 58.0164 75.5949 58.5631C75.3067 58.68 76.2451 60.3921 76.5399 65.1986C77.1163 74.5937 72.7966 79.4746 73.2803 79.8131C73.2282 80.4863 79.3624 80.1521 83.302 81.9732C85.4548 82.9808 87.3342 84.4904 88.7823 86.3753C91.2646 89.6149 89.8921 89.5072 92.1824 86.916C97.2432 81.1184 104.957 82.0925 104.991 81.4423C105.968 81.2606 101.826 73.5299 108.192 68.006C109.344 66.9967 110.273 66.642 110.216 66.4537ZM107.65 67.2898C104.425 69.3646 102.309 73.7073 103.936 79.0169C104.157 79.8131 104.46 80.5841 104.84 81.3175C102.871 80.4463 94.9535 80.9258 91.4656 86.3765C89.7492 89.0253 91.425 89.1076 89.5222 85.8722C88.4774 84.1605 87.0516 82.7132 85.3557 81.643C83.6598 80.5728 81.7397 79.9086 79.7451 79.7023C70.7363 78.5937 73.201 82.1143 76.0659 75.6895C78.6432 69.9082 77.907 61.5709 75.791 58.732C77.4118 59.573 82.3206 60.2565 87.3123 58.8241C89.8055 58.1205 92.9295 56.7305 94.6713 54.6956C96.84 52.1528 95.5256 51.4869 96.2806 54.83C97.2638 59.3526 101.226 63.8921 107.001 65.8488C110.333 66.9786 109.812 65.8924 107.65 67.2898Z" fill="black"/>
<path d="M65.661 16.3717C65.3904 15.6803 65.1077 15.515 64.469 15.5289C63.8847 15.541 63.1976 15.7348 63.0159 16.2911C62.8948 16.6689 63.0898 19.3576 62.4947 20.3106C62.4232 20.4522 62.316 20.5726 62.1836 20.6599C62.0512 20.7471 61.8982 20.7982 61.7399 20.808C61.5817 20.8178 61.4236 20.786 61.2814 20.7157C61.1392 20.6454 61.018 20.5392 60.9296 20.4075C59.1285 18.5597 60.7238 15.3745 58.8863 15.4054C58.4607 15.4218 58.0565 15.5961 57.7524 15.8943C57.4484 16.1924 57.2662 16.5931 57.2413 17.0183C57.2165 17.4481 57.3104 17.878 57.2601 18.3078C57.05 20.1041 56.6511 18.5246 57.6518 23.0272C57.9079 24.1805 58.2155 25.1807 59.5614 25.8121C57.7451 26.357 57.4799 29.0748 57.2607 31.1962C57.0585 33.1862 57.3818 34.5927 59.3416 35.3228C60.4174 35.7236 60.4386 35.4657 60.3575 35.7157C59.8363 35.4579 59.2664 35.3134 58.6853 35.2919C56.7927 35.1327 56.3241 39.2436 56.3931 41.0011C56.4361 42.0788 56.8333 42.3004 57.6718 42.2931C58.2972 42.2871 58.6024 42.2041 58.8258 41.6453C59.2217 40.6603 59.1933 39.2405 60.6003 39.4131C61.2662 39.4948 61.463 39.8211 61.5169 40.4617C61.6059 41.5182 60.7298 42.1387 61.7845 42.5165C63.2103 43.0263 63.9483 43.3581 64.1202 39.338C64.2238 38.416 64.0367 37.4846 63.585 36.6741C63.6843 36.2649 63.7485 35.8471 63.777 35.4263C64.3339 35.3367 64.9927 35.4493 65.546 34.27C66.4893 32.2593 65.9807 28.5971 65.3432 26.4297C65.2506 26.1142 65.1664 26.0174 64.8431 25.9514C63.918 25.7625 64.0197 25.9756 63.9955 25.7419C67.0735 24.6782 66.5214 18.5736 65.661 16.3717Z" fill="#FDFE1F"/>
<path d="M65.6504 15.7409C65.4791 15.5483 65.2664 15.3969 65.0284 15.298C64.7904 15.199 64.5331 15.1551 64.2757 15.1695C64.0183 15.1838 63.7675 15.2561 63.542 15.381C63.3164 15.5058 63.122 15.68 62.9732 15.8905C62.708 16.3264 62.8115 16.8029 62.7268 17.9411C62.4398 21.6069 61.0316 20.9391 60.5781 19.3983C60.1676 17.9556 60.2633 16.1 59.7033 15.5236C59.5386 15.3821 59.3464 15.2761 59.1389 15.2124C58.9313 15.1487 58.7128 15.1286 58.4971 15.1534C58.2813 15.1782 58.0731 15.2473 57.8854 15.3564C57.6977 15.4656 57.5345 15.6124 57.4063 15.7876C56.822 16.6533 55.6027 23.8603 58.8169 25.9309C57.5074 26.8391 57.1029 29.0186 56.9498 30.6133C56.7869 32.2601 57.0351 33.9946 58.3374 35.0238C55.8013 36.4339 55.7656 41.6321 56.5429 42.3556C57.3027 43.0736 58.8187 42.8478 58.9743 41.7617C59.2946 41.1974 59.4647 40.5508 59.7335 40.127C60.1252 39.5095 60.6211 39.5991 60.81 39.7904C61.1284 40.1113 60.81 42.3047 61.1605 42.427C61.5401 43.3667 63.2075 43.4127 63.6991 42.4876C64.2052 41.8821 65.2532 37.7144 63.9818 36.1082C63.9964 36.0507 64.0103 35.9931 64.023 35.935C66.9793 35.2037 66.6651 31.5662 66.5053 28.8019C66.4199 27.6879 66.2092 26.3559 65.2762 25.742C67.9898 23.4371 66.6651 16.8664 65.6504 15.7403V15.7409ZM61.0764 38.6437C60.1743 38.8132 59.759 37.7259 59.6409 37.7465C59.5404 37.7555 59.5071 38.2877 59.8958 38.7684C58.8248 39.168 58.5075 40.7482 58.5445 41.7919C58.4134 41.9217 58.2545 42.0201 58.0799 42.0796C57.9053 42.1391 57.7194 42.1582 57.5363 42.1355C57.3532 42.1128 57.1777 42.0488 57.0229 41.9484C56.8682 41.848 56.7382 41.7137 56.6428 41.5558C56.618 41.4953 56.6501 41.6006 56.8154 40.6804C57.2162 38.6159 57.4686 36.0355 59.4944 35.6468C59.6524 35.7025 59.8068 35.7473 59.9569 35.7849C59.6753 36.2314 59.5043 36.7386 59.4581 37.2645C59.4793 37.4976 59.5628 37.6066 59.6258 37.6024C59.6978 37.5987 59.7469 37.4873 59.8359 37.3336C60.1731 36.7233 60.6944 36.3885 60.9892 35.596C61.6104 33.971 60.2875 32.5616 60.2088 31.3749C60.167 30.8161 60.6017 29.8722 59.9527 30.4571C58.7751 31.516 60.0605 33.4055 60.1688 34.6067C59.8812 34.6017 59.5938 34.6257 59.3109 34.6781C57.4947 33.506 57.8071 31.0668 58.2387 28.8836C58.4391 27.8435 58.7636 26.8251 59.7039 26.3408C59.9642 26.4243 60.2294 26.4891 60.4988 26.5345C60.4794 26.9329 60.2681 28.5458 60.6562 28.4513C60.8378 28.4107 61.9585 26.4534 61.2756 24.1528C61.0963 23.5617 60.8803 22.9824 60.629 22.4182C60.4976 22.3661 60.253 22.7445 60.2736 23.3615C60.2736 23.893 60.4982 24.869 60.4982 25.4581C57.5401 25.1554 57.62 20.657 57.6527 17.648C57.6799 15.9407 57.5316 16.2368 57.7356 16.0891C57.8692 15.962 58.0293 15.8663 58.2044 15.8088C58.3796 15.7513 58.5653 15.7335 58.7482 15.7567C58.931 15.7799 59.1065 15.8434 59.2617 15.9428C59.4169 16.0422 59.5481 16.1749 59.6457 16.3312C59.7469 16.4898 58.8641 20.9464 61.2259 21.5512C60.6956 21.7208 60.5599 22.2463 60.681 22.2711C60.7507 22.3074 60.8627 22.1391 61.1048 22.0568C61.6219 21.8812 62.7219 22.3292 63.2553 23.6672C63.7938 25.1171 63.7852 26.7136 63.2311 28.1577C62.7377 29.2196 61.6425 29.4896 61.0019 28.86C60.8003 28.6693 60.741 28.4846 60.6623 28.4967C60.5176 28.4967 60.517 29.2614 61.2744 29.6773C60.6623 29.7378 59.7257 30.376 60.8614 30.1937C63.977 29.6767 63.8486 38.1249 61.0764 38.6419V38.6437ZM63.5393 39.2401C63.2365 42.4488 63.4787 42.0311 63.3576 42.1631C63.2275 42.2873 63.0731 42.3833 62.9042 42.4453C62.7353 42.5072 62.5554 42.5337 62.3758 42.5231C62.1962 42.5125 62.0207 42.465 61.8603 42.3835C61.6998 42.3021 61.5579 42.1885 61.4433 42.0499C61.7545 41.2519 62.0887 39.9648 61.6025 39.2588C62.4469 38.8702 63.1252 38.1934 63.5157 37.3499C63.6336 37.9732 63.6416 38.6122 63.5393 39.2382V39.2401ZM65.3265 27.3131C65.5535 28.1401 65.8835 32.3848 65.2363 33.8893C65.0291 34.411 64.645 34.8432 64.1513 35.1104C64.2948 33.4298 63.8486 30.5818 62.3024 29.8674C63.9013 29.6519 64.5364 27.9028 64.6308 26.2851C64.8116 26.3986 64.9668 26.5486 65.0864 26.7253C65.2061 26.9021 65.2876 27.1019 65.3259 27.3119L65.3265 27.3131ZM64.5836 24.9943C64.402 23.6497 63.759 22.1851 62.4876 21.6645C62.0723 21.4828 62.0178 21.5815 62.2267 21.4961C63.6797 20.9149 63.7118 17.5609 63.0343 16.4305C63.8081 15.7343 64.3772 15.5339 65.5886 16.2083C65.4893 18.0985 66.7287 23.0902 64.5836 24.9931V24.9949V24.9943Z" fill="black"/>
<path d="M79.4098 72.8862C79.2838 74.0365 79.4552 74.3531 80.2519 74.9906C88.1703 81.3259 91.2356 81.315 98.6364 78.2127C99.9417 77.6679 100.127 77.2895 100.25 76.2542C101.414 66.4753 101.477 66.617 101.276 66.0733C100.843 64.9036 97.2397 63.2278 96.1105 62.6829C91.9022 60.6565 91.3143 60.2951 90.4007 60.2158C88.6619 60.0644 83.3305 62.3093 81.7249 63.0074C80.8356 63.3937 80.8495 63.8792 80.6043 65.1155C80.0936 67.6872 79.695 70.2799 79.4098 72.8862Z" fill="#92FCFF"/>
<path d="M100.548 63.8459C92.4816 59.4166 92.177 58.9014 90.5036 59.4081L82.2171 61.9164C81.623 62.0948 81.0952 62.4456 80.7008 62.9244C80.3064 63.4032 80.0631 63.9884 80.0019 64.6057L79.0937 73.5582C79.0305 74.1751 79.1516 74.7969 79.4417 75.3449C79.7318 75.893 80.1779 76.3428 80.7235 76.6374C88.8793 81.051 88.7618 81.1388 89.8443 81.1388C90.5103 81.1388 90.1731 81.1793 99.0432 78.4943C99.6371 78.3154 100.165 77.9644 100.559 77.4857C100.953 77.007 101.197 76.4221 101.258 75.8049L102.159 66.916C102.223 66.3026 102.104 65.684 101.817 65.1379C101.531 64.5917 101.089 64.1423 100.548 63.8459ZM90.8711 60.622C91.1098 60.5503 91.3603 60.5266 91.6082 60.5525C91.8561 60.5784 92.0964 60.6533 92.3151 60.7728C100.634 65.3377 100.036 64.995 100.232 65.1573L90.8911 67.6704L82.2492 63.2689C82.4811 63.146 81.8097 63.3646 90.8711 60.622ZM81.3302 75.5216C81.0049 75.3459 80.7389 75.078 80.5655 74.7515C80.393 74.4245 80.3209 74.0538 80.3585 73.6859C81.3344 64.0596 81.2091 64.4199 81.576 63.878L90.3934 68.3697C89.119 80.9469 89.3563 79.8686 88.9507 79.6488L81.3302 75.5216ZM99.9986 75.6784C99.9623 76.0465 99.8174 76.3954 99.5823 76.6809C99.3472 76.9664 99.0324 77.1755 98.6781 77.2816C89.6845 80.006 90.3093 79.828 90.081 79.8565L91.2368 68.455L100.771 65.8898C101.015 66.4886 100.97 66.1005 99.9986 75.6784Z" fill="black"/>
<path d="M88.3716 70.1793C88.2257 69.4213 88.2196 69.2978 88.0404 69.1707C87.7117 68.9382 87.237 69.2512 86.9464 69.3747C85.5581 69.965 85.1053 70.2556 86.5226 71.2473L85.3723 73.1242C84.8008 70.5408 84.8032 70.476 84.6851 70.3658C84.593 70.2612 84.466 70.1936 84.3278 70.1757C84.1896 70.1578 84.0495 70.1907 83.9338 70.2683C83.3477 70.6764 78.7876 77.1478 83.9743 71.2734C84.2607 70.9495 84.0555 70.6897 84.7305 73.6745C84.9055 74.447 85.4922 74.3144 85.7162 73.9911L87.1341 71.6754C88.3232 72.3801 88.8123 72.4606 88.3716 70.1793ZM86.3682 70.3331C87.8957 69.7222 87.5869 69.4649 87.7486 70.2998C87.8091 70.6249 87.903 71.1801 87.9205 71.3854C87.3678 71.0897 86.8475 70.737 86.3682 70.3331Z" fill="black"/>
<path d="M88.2868 77.2607C82.7229 79.6461 86.04 84.6227 88.1905 86.8598C88.8668 87.5633 90.5608 88.0882 91.1898 88.8347C91.918 89.8155 92.7133 90.7449 93.5697 91.616C94.2587 92.2499 111.484 95.1553 98.5524 81.2983C96.0611 78.6289 91.6463 75.8198 88.2868 77.2607Z" fill="white"/>
<path d="M88.5195 85.8145C86.4429 83.7209 85.1055 82.1032 85.967 79.6295C87.2948 75.8153 93.1038 77.7211 96.3998 80.0018C99.815 82.363 102.948 87.8815 103.349 87.6738C103.847 87.4159 101 81.3773 97.2522 78.7915C92.9749 75.8437 86.2649 74.1758 84.5733 79.13C83.4721 82.3557 85.0286 84.4129 87.4697 86.8577C90.4969 89.8884 90.4854 90.3534 92.4294 92.4107C93.7849 93.8449 94.8844 94.4594 94.9994 94.3051C95.129 94.1313 94.325 93.2885 93.2352 91.7429C90.5344 87.9141 90.5247 87.836 88.5195 85.8145Z" fill="black"/>
<path d="M45.4448 85.5722C47.8604 82.6019 42.8566 77.1452 37.2109 78.5268C33.7231 79.3804 24.5393 84.3504 24.0126 85.9342C23.7571 86.7061 24.4969 87.4926 24.9038 88.1949C25.3413 88.8828 25.9111 89.477 26.5802 89.9428C28.451 91.3498 30.5591 93.4772 32.7749 92.7229C34.1892 92.2416 35.5962 89.9379 36.9433 89.3403C37.1419 89.2532 44.2369 87.0567 45.4448 85.5722Z" fill="white"/>
<path d="M35.8057 79.5247C32.2252 80.4413 29.353 82.3048 26.4409 83.9722C24.558 85.0499 24.5568 84.7956 26.111 83.4993C40.8229 71.2291 49.8341 81.344 45.2849 86.4629C44.3852 87.4758 43.287 87.8366 41.9605 88.1321C36.4214 89.3666 34.3575 91.8083 34.0899 91.5104C34.0294 91.4395 34.363 90.9752 35.1331 90.2929C39.2984 86.6058 42.7687 87.3559 44.2496 85.5748C46.5127 82.854 43.4535 77.568 35.8057 79.5247Z" fill="black"/>
<path d="M49.0997 68.7888C48.8249 65.6956 49.6446 52.1025 49.2281 51.3554C49.0011 50.9498 47.8962 50.5315 45.1917 49.297C44.2533 48.869 43.2101 48.697 42.2772 48.2435C40.6716 47.4656 39.563 46.8511 37.9823 46.0228C37.2279 45.6287 35.8027 45.5766 35.1004 45.0965C32.9002 43.7085 30.5426 42.5872 28.0774 41.7564C27.1802 41.4851 26.8484 41.8974 26.6765 42.7856C26.5784 43.2905 26.6965 43.0798 26.6844 43.5848C26.5966 47.2173 26.4337 44.6297 26.5905 50.4043C26.6789 53.6543 26.8097 54.247 26.493 55.0976C27.2619 63.8612 25.0109 66.2375 28.4661 68.5339C30.8691 70.1298 37.5573 71.4079 42.4879 74.0033C44.3647 74.992 46.2827 75.9946 48.3757 76.3451C48.8164 76.419 49.147 76.3197 49.2372 75.4557C49.4297 74.3708 49.5211 73.2702 49.5096 72.1683C49.417 71.0525 49.0997 69.9094 49.0997 68.7888Z" fill="white"/>
<path d="M30.0803 66.299C28.591 65.6821 29.0341 65.5441 29.3483 45.4541C30.0864 45.4117 30.6839 46.0741 31.3384 46.4167C40.1837 51.0471 46.2029 52.4359 46.4329 52.7859C46.5474 52.9602 46.218 71.7963 46.1302 72.0845C45.8154 73.1319 45.4594 72.3872 45.101 72.3267C44.4686 72.1831 43.8579 71.9568 43.2847 71.6534C41.357 70.821 39.2743 70.2228 37.3467 69.3904C33.4459 67.7073 35.6969 68.6269 30.0803 66.299Z" fill="#92FCFF"/>
<path d="M32.814 60.1139C32.8358 59.8651 32.9017 58.7856 32.6971 58.6367C32.4058 58.5536 32.134 58.4134 31.8974 58.2242C31.6609 58.035 31.4643 57.8007 31.3192 57.5348C31.2094 57.3353 31.152 57.1111 31.1524 56.8834C31.1527 56.6556 31.2108 56.4316 31.3213 56.2324C31.4317 56.0332 31.5908 55.8653 31.7838 55.7443C31.9768 55.6233 32.1973 55.5532 32.4247 55.5405C32.593 55.5103 33.2935 55.48 33.3249 55.569C32.1843 52.3887 31.2326 50.8115 34.0224 52.6205C34.62 51.357 34.6218 51.3128 34.758 51.2081C35.5898 50.5645 36.1178 52.7755 36.877 51.7947C37.1192 51.4848 37.1385 50.8648 37.2748 50.6789C37.4304 50.467 37.9668 50.4501 38.0812 51.2414C38.1557 51.759 37.9843 52.9299 38.6103 53.0335C38.8692 53.0304 39.1205 52.9457 39.3284 52.7913C40.2468 52.319 40.9194 52.9245 40.8135 53.3362C40.779 53.4706 40.6319 53.625 40.7184 53.7642C41.1028 53.5202 41.5671 53.4355 42.0128 53.5281C42.1259 53.6241 42.2048 53.7542 42.2375 53.8989C42.2703 54.0435 42.2552 54.1949 42.1945 54.3303C41.9565 54.8945 41.4074 54.9357 41.4147 55.3335C41.4147 55.4546 41.405 55.4085 41.9323 56.4953C42.097 56.6406 42.2005 56.8422 42.2217 57.0608C43.0754 57.0608 43.1704 56.9451 43.5658 57.4991C43.7021 57.7077 43.7892 57.9446 43.8204 58.1919C43.8515 58.4392 43.826 58.6903 43.7457 58.9262C43.6655 59.1622 43.5325 59.3767 43.357 59.5537C43.1815 59.7306 42.968 59.8653 42.7327 59.9474C41.543 60.3392 43.1099 60.4451 42.7466 62.8432C42.6146 63.712 42.6582 64.9156 41.8554 65.2649C41.5806 65.386 41.4183 65.4799 41.7222 65.8982C42.1364 66.4679 42.3731 66.3347 42.6909 67.6231C42.8747 68.1932 42.9216 68.7987 42.8278 69.3903C42.7418 70.6423 43.3696 71.5892 42.8314 71.4433C41.7396 71.2145 40.6992 70.787 39.7619 70.1822C39.7013 70.155 35.7273 68.797 31.2344 66.6847C29.8558 66.0362 31.9966 63.9844 34.0194 63.8391C34.7126 63.7895 34.2876 63.3651 33.8377 62.9001C32.4846 61.4895 32.7534 60.8102 32.814 60.1139Z" fill="#FDFE1F"/>
<path d="M32.8687 56.4742C32.2306 56.4578 31.9145 57.0748 32.0496 57.1341C32.1295 57.1783 32.4043 56.8205 32.8596 56.8314C32.9529 56.8338 33.0443 56.8562 33.1278 56.898C33.0159 56.9323 32.9163 56.9981 32.8406 57.0874C32.765 57.1767 32.7166 57.2859 32.7012 57.4019C32.6857 57.518 32.7039 57.636 32.7536 57.742C32.8033 57.8479 32.8823 57.9375 32.9813 57.9999C33.1841 58.1113 33.3282 58.0525 33.3258 58.0083C33.3331 57.9187 32.8832 57.7456 33.0836 57.3484C33.1411 57.2273 33.172 57.2546 33.2192 57.2697C34.1673 57.7026 34.0063 57.7371 33.8568 57.2346C33.7905 57.0215 33.6602 56.8341 33.4834 56.6979C33.3067 56.5617 33.0922 56.4833 32.8693 56.4736L32.8687 56.4742Z" fill="black"/>
<path d="M49.97 51.7973C49.97 49.6717 48.7591 50.4527 28.7285 41.2138C28.452 41.0853 28.1475 41.0284 27.8432 41.0485C27.5389 41.0686 27.2445 41.165 26.9873 41.3289C25.7898 42.0862 26.1881 41.1509 25.9641 66.6031C25.9597 66.9661 26.0638 67.3222 26.2632 67.6257C26.4625 67.9291 26.748 68.1661 27.083 68.3062C48.8899 77.4699 48.0308 77.4869 49.195 76.715C50.3593 75.943 49.9772 76.8772 49.97 51.7973ZM47.969 75.7069C26.1494 66.5365 27.4922 67.1419 27.3542 66.9694C28.0438 66.686 28.9471 65.9202 28.7739 65.698C28.6008 65.4758 27.4874 66.1878 27.2349 66.37C27.4165 41.2447 27.3923 42.8261 27.4329 42.6977C27.6823 43.2729 28.8611 45.3743 29.1693 45.1721C29.452 44.9863 28.3913 43.0858 27.8016 42.3375C28.0625 42.2564 26.6059 41.6715 48.2046 51.2125C47.7529 51.3941 46.2181 52.166 46.3513 52.4566C46.4978 52.7751 48.1864 51.9305 48.6707 51.6199C48.7125 51.7465 48.718 50.0779 48.7404 75.1929C48.7404 75.5562 48.7373 75.153 47.8165 74.1225C46.6153 72.7712 44.7651 71.6403 47.343 74.5463C47.7559 75.0083 48.1367 75.4193 48.4292 75.6966C48.3578 75.7317 48.2797 75.7508 48.2002 75.7526C48.1208 75.7543 48.0419 75.7388 47.969 75.7069Z" fill="black"/>
<path d="M29.6053 55.5402C29.707 42.1094 28.9605 42.0827 28.86 55.5148C28.8037 57.4461 28.8219 65.5831 28.8963 65.5922C29.4654 65.6666 29.5986 55.7551 29.6053 55.5402Z" fill="black"/>
<path d="M46.1047 72.3716C46.6284 72.4322 46.755 62.9463 46.7653 62.56C46.8651 49.4537 46.1187 49.4271 46.02 62.5352C45.9867 63.7515 45.9612 72.3565 46.1047 72.3716Z" fill="black"/>
<path d="M43.1865 71.2587C43.404 69.5496 43.0796 67.8152 42.259 66.3003C41.6747 65.354 41.507 65.6482 41.8654 65.4527C42.7875 64.9502 42.9189 64.111 42.9086 63.0709C43.0551 62.6223 43.1092 62.1486 43.0675 61.6785C43.0259 61.2083 42.8895 60.7515 42.6664 60.3356C42.5326 60.1134 42.8826 60.3961 43.5401 59.7822C44.8641 58.5914 43.7762 56.2284 42.371 56.7805C42.1954 55.7386 41.4465 55.8027 41.8182 55.4104C41.9481 55.3022 42.0677 55.1823 42.1754 55.052C42.9401 54.0403 42.4618 52.979 41.2418 53.3241C40.7932 53.4809 41.0723 53.5209 41.0342 53.0487C40.9858 52.3954 40.0958 51.7912 38.7662 52.6975C38.4575 52.9185 38.538 52.9397 38.4635 52.5268C38.3358 51.8081 38.1766 50.7934 37.8266 50.4937C37.6377 50.3006 37.3296 50.2455 37.0275 50.6627C36.8504 50.9504 36.7101 51.2591 36.6097 51.5817C36.4136 52.0588 36.3336 51.6356 35.7845 51.0719C35.2923 50.5664 34.6947 50.5591 34.3587 51.17C34.2316 51.4418 34.1329 51.7258 34.0639 52.0176C34.0478 52.0912 34.0173 52.161 33.9743 52.2228C33.5602 52.1272 33.1473 51.5145 32.5545 51.4467C31.2498 51.3656 32.2863 53.3495 32.9977 55.2439C30.7316 54.828 30.013 58.1161 32.5939 58.9885C32.2809 60.7067 32.6393 62.4709 33.9864 63.5534C32.4038 63.7557 30.9865 64.6311 30.6263 66.2052C22.9373 63.5886 45.5368 73.2954 45.8159 72.6288C45.8558 72.5247 44.8399 72.0046 43.1865 71.2587ZM41.5615 64.9199C40.3725 65.5768 35.5115 65.0979 35.457 62.948C35.4303 61.8958 35.8808 60.9162 37.2291 60.1116C37.181 60.2866 37.1882 60.4721 37.2499 60.6428C37.3116 60.8134 37.4247 60.9608 37.5736 61.0645C38.4605 61.5386 38.8855 60.9604 39.101 61.9515C39.135 62.101 39.1949 62.1815 39.2373 62.1713C39.2796 62.161 39.3093 62.0883 39.3481 61.9557C39.8427 60.2605 37.0729 61.0155 37.9665 60.0183C38.3642 59.5588 40.7412 59.4953 41.4931 60.0995C42.2838 60.74 40.5801 60.6613 40.2635 61.4036C40.1424 61.693 40.1805 62.2754 40.2816 62.3045C40.4203 62.3444 40.5056 61.811 40.6534 61.6252C40.9482 61.254 42.0507 61.4593 42.288 60.5959C42.4775 61.0766 42.5453 61.5961 42.4866 62.1095C42.3461 63.8973 41.3175 63.6437 39.6695 63.5686C31.5774 62.9989 40.5008 64.6075 41.857 64.1389C42.2929 63.9997 42.3486 63.7538 42.2202 64.1389C42.1671 64.3057 42.0815 64.4604 41.9685 64.5941C41.8555 64.7278 41.7172 64.8379 41.5615 64.9181V64.9199ZM36.6006 59.7532C36.3988 59.6386 36.2259 59.4795 36.0951 59.2879C35.9642 59.0963 35.8789 58.8773 35.8457 58.6477C37.0117 58.5599 36.8489 58.5478 36.8531 58.6065C36.8767 58.9461 36.8198 59.1163 37.2466 59.0612C37.6734 59.0061 37.5875 58.8359 37.5669 58.5696C38.3449 58.6501 38.3933 58.7978 38.6567 58.6906C38.5495 59.2059 38.5441 59.0945 38.2468 59.1695C37.9366 59.2346 37.6572 59.4017 37.4531 59.6442C37.2666 59.7135 37.0846 59.7944 36.9082 59.8864C36.8025 59.8491 36.6996 59.8039 36.6006 59.7514V59.7532ZM39.7162 59.0291C38.4974 59.0388 38.9794 59.2416 38.9019 58.5835C39.0375 58.6077 39.8851 58.5266 40.1975 58.5072C40.1727 58.5677 40.2084 58.667 40.2314 58.8783C40.2477 59.0273 40.9688 59.109 40.944 58.8178C40.9343 58.7118 40.9198 58.618 40.9076 58.5326C41.1656 58.5659 41.6802 58.6822 41.7002 58.6828C41.1541 59.6242 41.4217 59.0575 39.7162 59.0291ZM41.8576 57.6826C42.0428 58.0864 41.8418 58.3867 41.6759 58.331C40.9815 58.1486 40.2545 58.1279 39.5509 58.2705C38.5138 58.3843 39.319 58.4406 38.9545 57.6045C39.1014 57.3449 39.3161 57.1301 39.5757 56.9831C39.8353 56.8362 40.13 56.7627 40.4282 56.7705C40.7264 56.7782 41.0168 56.867 41.2684 57.0273C41.52 57.1875 41.7233 57.4132 41.8564 57.6802L41.8576 57.6826ZM38.6863 58.1064C38.6639 58.5302 38.317 58.3098 37.8418 58.2529C36.8343 58.1185 35.7948 58.4418 35.6755 58.3492C35.4255 58.2142 35.7615 56.7975 37.1818 56.8059C38.0682 56.8047 38.7475 57.6045 38.6869 58.1016L38.6863 58.1064ZM42.8577 57.2933C43.8101 57.6209 43.778 59.5461 42.2735 59.8797C42.2305 59.844 41.7129 59.4747 41.6124 59.4196C41.8418 59.1883 41.992 58.8898 42.041 58.5677C42.072 58.5435 42.1004 58.5161 42.1258 58.486C42.1444 58.5464 42.1809 58.5998 42.2303 58.6392C42.2798 58.6787 42.34 58.7023 42.4031 58.707C42.4309 58.6888 42.4963 58.8208 42.4588 58.8989C42.3855 59.0763 42.0713 59.2355 42.1179 59.33C42.1591 59.4511 42.6265 59.3984 42.7936 59.0273C42.822 58.9619 42.836 58.8912 42.8345 58.8199C42.8331 58.7486 42.8162 58.6785 42.7851 58.6144C42.754 58.5503 42.7093 58.4936 42.6543 58.4484C42.5992 58.4031 42.535 58.3703 42.466 58.3522C42.5266 58.265 42.7899 58.2008 42.882 58.3413C43.0363 58.5914 43.1374 58.489 43.1241 58.2656C43.1011 57.8769 42.5944 57.8031 42.2904 58.0283C42.2947 57.8575 42.2582 57.6881 42.1839 57.5343C42.1494 57.4628 42.5169 57.1716 42.8559 57.2885L42.8577 57.2933ZM34.6239 52.1877C34.6711 52.0297 34.8346 51.3062 34.9968 51.2705C35.4539 50.9381 36.3803 53.6922 37.1679 51.4346C37.1885 51.374 37.4101 50.7583 37.4948 50.7734C37.7182 50.4235 38.2329 53.9955 38.0942 54.5616C38.0815 54.6222 38.0785 54.5822 33.717 55.3239C33.7581 55.4389 33.5353 54.8728 33.4893 54.7511C33.6104 54.7323 37.6989 53.9404 37.6807 53.7927C37.6583 53.599 34.9648 53.9332 33.4173 54.5659C31.2656 49.0195 33.8853 54.6954 34.6245 52.1877H34.6239ZM33.0377 59.0817C33.9749 59.1822 34.3242 58.5332 34.0179 58.6362C32.8615 59.0254 31.2365 57.8491 31.6615 56.5208C31.9643 55.5751 33.1533 55.6441 33.8835 56.1606C34.4889 56.5971 34.5615 57.142 34.6548 57.1214C34.6947 57.1183 34.7371 56.9821 34.6953 56.7339C34.6161 56.4171 34.4629 56.1235 34.2485 55.8772C38.5713 55.0968 38.4224 55.1265 38.5301 54.9691C38.687 54.4987 38.7146 53.9947 38.61 53.51C39.2379 53.1467 39.6708 52.7229 40.2641 52.9142C41.0027 53.2 39.3305 54.5198 39.6441 54.7124C39.7077 54.788 40.1224 54.4484 40.8168 54.0561C41.4919 53.6977 42.1573 53.6468 41.863 54.3425C41.656 54.8528 41.2994 54.871 41.1171 55.3257C40.8084 56.0746 41.6735 56.0806 41.8297 57.0209C41.627 56.8094 41.3786 56.6471 41.1035 56.5463C40.8284 56.4456 40.5339 56.409 40.2426 56.4394C39.9512 56.4699 39.6707 56.5665 39.4223 56.7219C39.174 56.8774 38.9645 57.0875 38.8098 57.3363C38.606 57.0184 38.3117 56.7687 37.9649 56.6193C37.618 56.4699 37.2344 56.4277 36.8633 56.4981C36.4923 56.5684 36.1508 56.7482 35.8827 57.0142C35.6146 57.2802 35.4322 57.6203 35.3589 57.9908C35.3456 58.1724 35.3044 58.4981 35.5799 58.6138C35.5593 58.9137 35.6332 59.2126 35.7912 59.4685C35.9492 59.7243 36.1833 59.9242 36.4608 60.0401C36.6848 60.131 36.5673 59.9548 35.8784 60.6214C35.5616 60.9209 35.3108 61.2831 35.1418 61.6849C34.9728 62.0868 34.8894 62.5194 34.897 62.9553C34.8927 63.5516 35.2445 63.7587 34.6294 63.3034C33.2835 62.322 32.9753 60.7449 33.0383 59.0817H33.0377ZM34.0173 67.4512C34.5224 67.1085 35.1016 66.8907 35.7074 66.8157C36.3131 66.7406 36.928 66.8105 37.5015 67.0195C39.9668 67.852 40.5892 69.4842 40.7793 69.4025C40.9113 69.348 40.5613 68.346 39.5624 67.6256C37.0377 65.7578 34.6463 66.2216 33.7769 67.3586C32.8624 67.0054 31.9429 66.6655 31.0186 66.339C31.7082 64.8218 32.9559 64.3411 34.5664 63.9331C34.8437 64.079 35.1361 64.1946 35.4382 64.2769C36.3724 65.4042 37.6177 65.5162 38.9836 65.73C39.7117 65.8638 40.4586 65.8589 41.1849 65.7154C42.3673 67.143 42.6319 69.1991 42.7409 71.0553C40.149 69.9002 36.732 68.4974 34.0167 67.4512H34.0173Z" fill="black"/>
<path d="M46.3029 52.7038C46.4391 52.3641 29.9055 45.4223 29.7584 45.7535C29.5029 46.328 46.0728 53.2741 46.3035 52.7038H46.3029Z" fill="black"/>
<path d="M70.5753 38.4351C71.0336 37.7255 71.4066 37.8 71.7323 38.2534C72.796 39.7246 77.215 45.9581 76.9081 47.7684C76.7743 48.2137 76.5342 48.6199 76.2085 48.9518C75.8828 49.2837 75.4813 49.5314 75.0385 49.6737C74.6099 49.8038 74.0093 50.1301 73.5855 50.2682C73.1011 50.5146 72.6301 50.7858 72.1742 51.0807C70.6837 51.7466 68.9915 50.5358 66.0412 48.7934C65.2869 48.3484 65.4927 47.6993 65.8596 46.9286C67.2417 43.9962 68.8171 41.1587 70.5753 38.4351Z" fill="#92FCFF"/>
<path d="M70.2776 59.7225C70.5082 60.1972 70.8339 60.9788 71.4763 60.7299C71.8474 60.5858 71.9213 60.1088 72.0872 59.7473C72.2821 59.3986 72.5267 59.0814 72.8137 58.8035C73.3961 58.1423 77.2521 51.947 76.8652 51.1751C76.6109 50.6671 75.2433 51.8731 73.1879 52.6511C72.4389 53.0012 71.6143 53.1587 70.789 53.1094C69.9637 53.06 69.1638 52.8053 68.4619 52.3684C66.984 51.6092 66.1964 51.0491 65.5588 51.4427C65.2446 51.637 65.3342 51.6243 65.4717 52.0075C67.1003 56.5155 69.4245 57.9668 70.2776 59.7225Z" fill="#92FCFF"/>
<path d="M65.1695 48.7974C65.7411 49.6226 70.4368 51.764 71.1372 51.6683C71.1863 51.6683 71.2281 51.635 71.2838 51.6683L71.423 51.629C75.4981 49.6916 78.9485 49.6117 76.4481 45.272C74.7995 42.5681 71.7203 37.2876 71.3843 37.4831C70.9835 37.2307 66.4088 44.8451 66.1933 45.2199C65.5679 46.3654 64.7306 47.7567 65.1695 48.7974ZM70.8394 50.5156C69.22 49.9297 67.6632 49.1835 66.1921 48.2882C65.9554 48.1157 66.229 48.1411 67.1505 47.9661C68.8966 47.6344 70.4912 47.2281 70.9483 47.1694C70.9629 51.0593 71.173 50.6228 70.8394 50.5162V50.5156ZM71.5441 50.3661C71.1015 50.5537 71.3189 50.9551 71.4478 47.1476C72.1035 47.1773 74.2933 47.7893 76.1175 48.0769C75.618 48.9282 72.7283 49.8642 71.5441 50.3667V50.3661ZM72.3632 40.0586C75.1524 45.9028 76.2198 46.4404 76.221 47.6537C76.2162 47.9704 76.6382 47.8529 72.3626 46.7377C72.0688 46.6633 71.7686 46.6167 71.466 46.5985C71.5162 44.8893 71.6131 39.3024 71.4127 37.8234C71.6808 38.5885 71.9983 39.3353 72.3632 40.0592V40.0586ZM66.1969 47.796C66.6165 46.4707 69.9688 41.2858 71.222 38.1739C71.0186 40.0901 70.9483 44.4855 70.9465 46.6166C69.8344 46.7438 66.1618 47.9086 66.1969 47.7966V47.796Z" fill="black"/>
<path d="M77.4219 50.2337C77.3273 50.1716 77.2181 50.1352 77.1052 50.1282C76.9922 50.1212 76.8793 50.1438 76.7778 50.1937C75.2606 50.9396 73.6768 51.6177 71.7709 52.5173C70.9529 52.9042 71.387 52.9369 69.9885 52.3962C65.0355 50.474 65.7959 49.4054 65.0203 49.7548C63.3857 50.4934 69.3074 59.7861 71.0341 61.0484C72.165 61.8748 76.6888 53.4503 77.3475 52.0717C77.6369 51.4536 77.9674 50.5921 77.4219 50.2337ZM66.7718 52.8491C65.9473 51.1539 65.7971 51.947 69.5889 53.4176C70.58 53.8021 70.603 53.8111 70.7471 53.8553C71.278 54.037 70.9136 53.2196 70.8997 57.1785C70.8809 58.3114 70.9275 59.4445 71.0395 60.572C70.442 59.4047 68.5488 56.5011 66.7718 52.8491ZM71.2181 60.9788C71.0764 60.4763 71.433 61.9184 71.4494 57.1803C71.4621 53.5345 71.1788 53.951 71.4306 53.8741L76.3419 51.6261C74.3893 55.7303 71.3489 60.5762 71.2181 60.9788Z" fill="black"/>
<path d="M58.8538 77.1569C58.117 76.8263 57.447 76.3633 56.8771 75.791C56.5024 75.234 56.0757 74.7138 55.6027 74.2375C54.7091 73.2088 53.9683 72.0568 53.4031 70.8168C53.1761 70.238 53.1113 69.7168 52.5277 66.6182C51.9998 63.8157 51.5124 60.4349 53.9371 58.5103C55.8642 56.9804 59.5301 57.4484 61.1417 58.1603C63.2111 59.0745 66.0742 62.1616 66.926 66.1859C67.2983 67.9416 67.5538 72.572 66.8406 74.2193C65.4167 77.505 59.5252 77.3736 58.8538 77.1569Z" fill="#FDFE1F"/>
<path d="M63.0327 58.7827C60.5159 56.4379 58.383 56.8454 55.0453 57.3654C49.8658 58.17 50.8236 73.3536 58.3213 77.1938C59.4607 77.7653 61.9054 77.5195 63.1756 77.264C64.8774 76.9008 65.5973 76.6847 66.4715 75.6512C68.972 72.3183 67.6261 62.8706 63.0327 58.7827ZM54.4532 58.5012C54.8988 58.2136 57.2503 57.9121 57.6753 57.8709C57.1854 58.201 56.7669 58.6262 56.4444 59.1211C56.122 59.616 55.9024 60.1707 55.7984 60.7522C54.435 61.0222 54.5736 61.176 53.0601 60.8993C53.2841 60.0347 53.7012 58.9886 54.4532 58.5012ZM52.9142 61.5429C54.8273 61.3049 53.7139 61.3407 55.6495 61.4642C55.4572 62.8142 55.4527 64.1844 55.6362 65.5357C54.2007 65.8989 54.4695 66.0261 52.8125 65.8438C52.6214 64.4137 52.6557 62.9624 52.9142 61.5429ZM52.9027 66.4753C55.0217 66.0315 54.3557 66.31 55.7343 66.2507C55.9557 67.6222 56.2979 68.9715 56.7568 70.2828C55.0102 70.5571 55.6761 70.5377 53.924 70.3228C53.4623 69.0758 53.1205 67.7877 52.9033 66.4759L52.9027 66.4753ZM54.1819 70.9761C56.1242 70.6213 56.1163 70.9882 57.0226 70.9918C57.4497 72.1012 58.0057 73.1567 58.6791 74.1364C57.3665 74.5759 57.6432 74.4149 56.2277 74.4276C55.3759 73.3873 54.6873 72.2235 54.1856 70.9761H54.1819ZM56.7247 74.9719C58.0034 74.5535 58.541 74.8714 59.1719 74.7558C59.9152 75.6159 60.8829 76.2525 61.9671 76.5944C59.5775 76.8517 58.3527 76.6217 56.7247 74.9743V74.9719ZM66.9189 72.3534C66.4606 75.5743 65.0918 76.0096 63.267 76.388C59.3868 76.2566 57.4361 71.3756 56.5607 67.5881C54.1232 57.0215 60.1751 55.0557 64.5239 61.7536C66.5303 64.9018 67.3772 68.6508 66.9189 72.3558V72.3534Z" fill="black"/>
<path d="M65.6222 67.7778C65.8595 69.8514 65.8117 72.9239 64.3017 74.3382C64.1277 74.5185 63.9194 74.6622 63.689 74.7608C63.3423 74.9094 62.959 74.9508 62.5885 74.8798C62.218 74.8088 61.8772 74.6286 61.61 74.3624C57.4156 70.9805 55.5878 57.9553 60.6159 59.4985C62.5799 60.1009 64.0426 62.8429 64.8272 64.7415C65.5883 66.6317 65.6603 66.596 65.0307 64.6671C62.4879 57.1083 56.7968 56.9884 57.0002 64.0374C57.194 69.1418 61.0827 78.1724 64.6178 74.6742C66.2179 73.1037 66.2445 69.9809 65.8365 67.7439C65.4399 65.7369 65.3667 65.7841 65.6222 67.7778Z" fill="black"/>
<path d="M62.1597 66.376C62.4211 66.1233 62.6087 65.8043 62.7024 65.453C62.7961 65.1017 62.7922 64.7316 62.6913 64.3824C62.5904 64.0331 62.3962 63.718 62.1297 63.4708C61.8631 63.2237 61.5342 63.0538 61.1784 62.9795C61.1105 62.319 60.6855 61.9334 60.5729 62.0108C60.4458 62.0932 60.6214 62.6235 60.7104 62.9468C59.9972 62.9505 60.1213 63.0679 60.0765 62.8802C59.8186 61.8153 59.3554 62.0326 59.6472 63.074C59.4758 63.1676 59.2977 63.2485 59.1144 63.3161C59.3215 64.1359 60.0317 65.8499 60.3798 67.2514C61.6778 72.4763 61.0724 71.168 61.8595 71.1365C62.035 71.972 62.7912 72.4963 62.3535 71.1873C62.3159 71.0777 62.3044 71.0995 62.3886 71.0868C63.0515 70.9881 62.9383 70.8556 62.9843 71.0263C63.2525 72.0113 63.7242 71.9774 63.4305 70.8979C63.373 70.6885 63.3476 70.7684 63.4965 70.6558C65.0543 69.5109 63.5995 66.8724 62.1597 66.376ZM60.1655 63.8453C60.404 63.7169 60.668 63.6428 60.9386 63.6282C61.2091 63.6137 61.4795 63.6591 61.7305 63.7611C61.9047 63.8627 62.0504 64.0066 62.154 64.1796C62.2576 64.3526 62.3158 64.5489 62.3232 64.7504C62.3302 64.9521 62.2859 65.1523 62.1942 65.3321C62.1026 65.5119 61.9668 65.6655 61.7995 65.7784C61.4239 66.0091 61.0105 66.1719 60.5784 66.2591C60.4155 65.417 60.2853 64.53 60.1655 63.8453ZM61.9127 70.2295C61.4727 69.2653 61.1002 68.2716 60.7981 67.2557C61.2267 67.0734 61.6998 67.0226 62.1573 67.1098C63.7629 67.6201 64.8139 70.4057 61.9127 70.2295Z" fill="black"/>
<path d="M77.4808 99.701C78.2781 99.2166 79.1191 98.8122 79.9588 98.4078C82.9763 96.9548 83.8711 97.1019 86.0179 98.0191C87.5594 98.6778 93.412 101.107 94.0096 102.642C94.1912 103.111 94.1458 103.025 94.1852 109.071C94.1979 111.082 93.9121 110.956 93.7178 111.991C93.4363 113.491 93.8885 114.018 92.1219 114.935C89.7978 116.246 87.2566 117.128 84.62 117.538C83.8434 117.767 83.0286 117.836 82.2245 117.742C81.4204 117.648 80.6437 117.391 79.9413 116.989C78.8103 116.454 74.295 113.845 73.6932 112.755C73.33 112.093 73.3972 111.841 73.2458 105.94C73.1108 100.639 72.6252 102.645 77.4808 99.701Z" fill="#FFC5F6"/>
<path d="M92.9026 100.106C84.4266 96.5143 84.0754 96.0312 82.4614 96.7038L74.4697 100.034C73.8967 100.271 73.4072 100.674 73.0632 101.19C72.7192 101.706 72.5361 102.313 72.5372 102.933V111.932C72.5367 112.552 72.72 113.158 73.0639 113.674C73.4079 114.19 73.8971 114.593 74.4697 114.831C83.223 118.48 82.8246 118.403 83.6765 118.403C84.5283 118.403 84.0137 118.527 92.8832 114.831C93.4558 114.593 93.945 114.19 94.289 113.674C94.633 113.158 94.8163 112.552 94.8157 111.932V102.998C94.8169 102.381 94.6359 101.778 94.2956 101.263C93.9553 100.749 93.4707 100.346 92.9026 100.106ZM82.9493 97.8753C83.1798 97.7799 83.4269 97.7312 83.6763 97.7319C83.9257 97.7326 84.1725 97.7828 84.4024 97.8796C93.1472 101.591 92.5072 101.3 92.721 101.443L83.6807 104.886L74.6398 101.378C74.859 101.232 74.2257 101.51 82.9493 97.8753ZM74.9577 113.661C74.6163 113.519 74.3247 113.279 74.1199 112.972C73.9151 112.664 73.8063 112.302 73.8074 111.933C73.8074 102.286 73.7147 102.635 74.029 102.049L83.2551 105.628C83.2551 118.27 83.3828 117.172 82.9572 116.995L74.9577 113.661ZM93.5443 111.933C93.5454 112.302 93.4367 112.664 93.2318 112.972C93.027 113.279 92.7354 113.519 92.394 113.661L84.3969 116.995C83.9731 117.173 84.0997 118.281 84.0997 105.63L93.3264 102.119C93.634 102.688 93.5486 102.313 93.5486 111.933H93.5443Z" fill="black"/>
<path d="M42.0453 99.7008C42.8427 99.2164 43.6836 98.812 44.5233 98.4076C47.5402 96.9545 48.4356 97.1016 50.5825 98.0189C52.1239 98.6776 57.9766 101.107 58.5741 102.642C58.7557 103.111 58.7103 103.025 58.7497 109.07C58.7624 111.082 58.4766 110.956 58.2823 111.991C58.0002 113.491 58.453 114.017 56.6864 114.935C54.3624 116.246 51.8212 117.128 49.1845 117.538C48.4079 117.767 47.5931 117.836 46.789 117.742C45.9849 117.647 45.2082 117.391 44.5058 116.989C43.3748 116.454 38.8595 113.845 38.2577 112.755C37.8945 112.093 37.9617 111.841 37.8103 105.94C37.6753 100.639 37.1898 102.644 42.0453 99.7008Z" fill="#FFC5F6"/>
<path d="M57.4668 100.161C48.995 96.5686 48.639 96.0867 47.0256 96.7587L39.0339 100.089C38.4611 100.326 37.9718 100.729 37.6278 101.245C37.2839 101.761 37.1009 102.367 37.102 102.987V111.986C37.1011 112.606 37.2842 113.213 37.6281 113.729C37.972 114.245 38.4612 114.647 39.0339 114.885C47.7872 118.535 47.3888 118.46 48.2407 118.46C49.1325 118.46 48.972 118.419 57.4474 114.885C58.0203 114.647 58.5098 114.245 58.8538 113.729C59.1979 113.213 59.381 112.606 59.38 111.986V103.053C59.3808 102.437 59.1998 101.833 58.8595 101.319C58.5192 100.804 58.0348 100.402 57.4668 100.161ZM47.5142 97.9302C47.7446 97.8347 47.9917 97.7859 48.2411 97.7866C48.4905 97.7873 48.7373 97.8376 48.9672 97.9344C57.7041 101.64 57.0702 101.355 57.2858 101.498L48.2461 104.941L39.2028 101.433C39.419 101.288 38.7167 101.597 47.5142 97.9302ZM39.5225 113.716C39.1814 113.574 38.8902 113.334 38.6854 113.026C38.4807 112.719 38.3717 112.357 38.3722 111.988C38.3722 102.32 38.2832 102.685 38.5938 102.104L47.8199 105.684C47.8199 118.33 47.9476 117.228 47.522 117.05L39.5225 113.716ZM58.1092 111.988C58.1099 112.357 58.001 112.719 57.7962 113.026C57.5915 113.334 57.3 113.574 56.9589 113.716L48.9611 117.05C48.5373 117.228 48.6627 118.336 48.6627 105.686L57.8906 102.171C58.1982 102.744 58.1128 102.362 58.1128 111.988H58.1092Z" fill="black"/>
<path d="M87.0001 100.24C86.9547 99.4719 85.854 97.3117 84.8678 95.3144C84.6057 94.6321 84.1013 94.0704 83.4511 93.7367C83.1043 93.5002 82.7079 93.3465 82.2923 93.2873C81.8768 93.2281 81.4532 93.265 81.0542 93.3952C80.1545 93.5841 80.3404 93.6198 80.1 93.3292C80.6449 93.2802 80.9149 93.1518 81.2788 92.4483C82.6017 89.8928 81.3309 89.0446 80.8477 86.9994C80.726 86.1095 80.4941 85.238 80.1575 84.4052C79.4958 82.6494 79.3995 81.3726 77.2164 82.6107C76.6315 82.9425 76.5891 83.178 76.7992 83.7132C77.1346 84.5668 78.0979 87.2483 77.9241 88.1528C77.9093 88.3345 77.8439 88.5084 77.7354 88.6549C77.6268 88.8014 77.4794 88.9145 77.3099 88.9816C77.1403 89.0486 76.9554 89.0669 76.776 89.0342C76.5966 89.0016 76.43 88.9194 76.2949 88.797C75.2518 88.1074 75.2602 87.089 75.0998 86.2626C74.8927 85.2013 74.0578 83.4637 73.0111 83.3445C72.7532 83.3409 72.5004 83.4165 72.287 83.5612C72.0739 83.7064 71.9106 83.9135 71.819 84.1545C71.5568 85.2661 73.9985 91.4881 74.7523 92.3533C75.2303 92.8631 75.8624 93.2021 76.5516 93.3183C76.8676 95.1394 77.2037 94.4032 76.5286 94.8924C76.2818 95.1552 76.1062 95.4766 76.0184 95.8263C75.9307 96.1759 75.9338 96.5422 76.0273 96.8903C76.3155 98.4971 79.0762 101.734 79.7059 102.163C80.9355 103.007 82.5127 102.597 81.9744 101.207C81.7886 100.825 81.5555 100.468 81.2806 100.144C79.9596 98.298 81.1831 96.8915 82.196 97.1773C83.04 97.4128 83.2253 98.5195 83.4856 99.1286C83.8668 99.9748 84.4241 100.73 85.1202 101.344C85.3035 101.496 85.5293 101.588 85.7668 101.607C86.0044 101.627 86.242 101.572 86.4473 101.451C86.653 101.331 86.8164 101.15 86.9154 100.933C87.0143 100.716 87.0439 100.474 87.0001 100.24Z" fill="#FDFE1F"/>
<path d="M87.159 99.3738C86.9338 97.4055 84.7579 92.7552 81.8918 92.6505C83.1596 90.0665 80.9013 84.2714 79.8527 82.7717C79.9901 81.3889 77.2373 81.2854 76.7087 82.7251C76.3806 83.6375 77.8342 86.9879 77.7609 87.979C77.7337 88.5566 77.2451 88.7358 76.7923 88.3701C76.2443 87.9269 75.2642 85.2067 74.5376 84.3779C74.5186 84.1937 74.4634 84.0151 74.3751 83.8523C74.2868 83.6896 74.1672 83.5459 74.0231 83.4295C73.8791 83.3132 73.7134 83.2264 73.5357 83.1743C73.3581 83.1222 73.1718 83.1057 72.9877 83.1259C71.9325 83.1804 71.4742 84.2429 71.8132 84.7C71.1133 85.4495 73.0907 91.0794 74.0351 92.4549C74.2574 92.8158 74.5502 93.1281 74.896 93.3732C75.2418 93.6183 75.6335 93.7911 76.0476 93.8813C76.1862 94.3814 76.2607 94.4262 76.2002 94.3717C75.9033 94.7142 75.6955 95.1246 75.5954 95.5666C75.4953 96.0086 75.5059 96.4685 75.6262 96.9054C76.0645 98.7217 78.9676 102.508 79.7286 102.285C79.8115 102.426 79.9302 102.542 80.0725 102.621C81.2149 103.332 82.9973 102.313 82.1152 101.206C81.8125 100.237 80.8408 98.0854 81.7852 97.9474C82.9549 97.776 83.5119 100.182 84.4001 100.924C84.5763 101.893 86.9084 102.438 87.0513 101.166C87.2115 100.583 87.2482 99.9723 87.159 99.3738ZM73.0471 87.0926C72.2419 84.1805 71.7448 84.9773 72.1553 84.2659C72.243 84.1122 72.3698 83.9844 72.5228 83.8954C72.6758 83.8064 72.8495 83.7594 73.0265 83.7592C73.2757 83.7543 73.5222 83.8104 73.7448 83.9225C73.9673 84.0347 74.1591 84.1995 74.3033 84.4027C74.287 85.0481 75.1225 87.3887 75.3586 88.005C75.464 88.3416 75.6413 88.6516 75.8787 88.9126C76.1166 89.1729 76.4084 89.3787 76.7341 89.5144C75.826 90.3281 75.7297 91.8755 75.8738 93.0174C74.3142 91.5032 73.7082 89.4702 73.0471 87.0926ZM81.8597 101.452C81.8313 101.856 81.8161 101.989 81.2749 102.17C80.7765 102.265 80.2636 102.251 79.771 102.13C79.6499 101.68 76.9418 97.8765 76.6548 96.6615C76.5446 96.2651 76.5743 95.8428 76.739 95.4657C77.5042 96.705 78.9882 97.9419 80.4321 97.948C80.1584 99.0075 81.1072 100.875 81.8597 101.452ZM86.622 101.04C86.3471 101.519 85.2362 101.156 84.8796 100.955C84.4558 100.717 84.7664 100.924 84.3032 99.5348C83.917 98.4662 83.4653 97.1258 82.1691 96.9103C82.3592 96.4653 82.206 96.0833 82.1206 96.1039C82.0347 96.1087 82.0201 96.3224 81.8488 96.5749C80.7094 98.2864 76.9133 95.9004 76.8044 92.0838C76.6609 88.8835 78.6098 89.6954 78.6624 89.6318C78.7024 89.5961 78.6467 89.3824 78.3131 89.1947C79.4204 88.0807 78.3567 86.219 77.7682 84.8453C77.5526 84.2852 77.2578 83.759 76.8928 83.2827C77.184 82.7093 77.6532 82.2535 78.8755 82.314C79.191 82.3297 79.3205 82.4847 79.553 82.7063C79.3544 84.5989 82.8072 90.8984 80.3449 92.9544C79.8249 91.8144 79.7934 90.3432 79.0644 89.7977C78.4221 89.317 78.7841 90.1004 78.8519 90.7398C79.0154 92.28 79.0596 93.621 80.4006 94.6932C80.8117 95.0147 81.095 95.1636 81.3372 95.3676C81.8167 95.7309 81.9644 96.07 82.1146 96.0639C82.3713 96.0367 82.2109 95.3344 81.8894 94.8633C81.5994 94.5122 81.2882 94.1792 80.957 93.8668C81.8409 93.5247 82.8338 93.6852 83.8207 94.8046C84.7948 95.8901 87.1372 100.088 86.622 101.04Z" fill="black"/>
<path d="M58.27 86.7741C57.928 86.3516 57.4453 86.0664 56.9102 85.9707C55.5334 85.9022 55.3766 88.5988 54.5181 89.6638C53.9067 90.4224 53.0712 90.3558 52.8532 90.0077C52.7151 89.553 52.7306 89.0655 52.8974 88.6206C53.2381 87.984 53.4924 87.3047 53.6536 86.6009C53.91 85.9417 53.9175 85.2117 53.6748 84.5473C53.438 84.0533 52.2381 83.776 51.5969 84.4341C51.3075 84.7979 51.1005 85.2211 50.9915 85.6734C50.4842 87.1331 48.0582 90.9321 50.4993 92.6964C50.351 93.665 50.4484 93.507 50.1536 93.4229C47.8578 92.7733 44.8373 99.2647 44.8355 100.035C44.8494 100.265 44.9391 100.485 45.0907 100.659C45.2422 100.833 45.4471 100.952 45.6734 100.997C46.9109 101.261 47.5115 99.8471 47.9305 99.1932C48.5825 98.1755 49.3569 98.1071 49.662 98.3129C49.8729 98.5458 50.0182 98.8305 50.0831 99.1379C50.1479 99.4453 50.1301 99.7644 50.0313 100.063C49.8539 100.645 49.2485 101.381 49.659 102.01C50.0888 102.67 50.331 102.713 50.7439 102.719C51.8434 102.736 51.385 102.823 52.5111 101.652C53.2042 100.739 53.8329 99.7796 54.3928 98.7797C54.7792 98.0519 54.8831 97.2071 54.6847 96.4074C54.4862 95.6076 53.9994 94.9094 53.3176 94.4467C53.4689 93.866 53.3539 94.0101 53.6536 94.0646C54.6731 94.0841 55.6694 93.7588 56.4809 93.1413C57.0646 92.3372 57.5088 91.4406 57.7947 90.489C57.9007 90.1057 57.957 89.7104 58.0611 89.3272C58.2633 88.6 58.7919 87.5672 58.27 86.7741Z" fill="#FDFE1F"/>
<path d="M58.7157 86.7948C58.3737 85.8025 57.0581 85.2449 56.2559 85.9829C55.4942 86.1143 54.2035 90.2372 53.4709 89.9357C52.507 89.5985 54.482 86.061 54.1611 84.8853C54.0939 84.6703 53.9817 84.4722 53.8318 84.3041C53.682 84.1361 53.4981 84.0019 53.2923 83.9105C53.0866 83.8189 52.8638 83.7721 52.6387 83.7731C52.4135 83.7742 52.1912 83.8231 51.9864 83.9166C51.2253 84.3004 46.7688 89.8673 49.6173 93.0507C47.8616 93.3455 47.1956 94.3536 46.4043 95.6443C45.8171 96.6227 44.4415 99.2563 44.5977 100.348C44.7394 101.448 46.4982 101.776 46.9765 100.942C47.2792 100.923 47.8798 100.344 48.401 99.5681C48.5014 99.3668 48.6636 99.203 48.8638 99.1005C49.0641 98.998 49.2918 98.9622 49.5138 98.9984C50.8318 99.398 49.0198 101.327 49.492 101.768C49.5226 101.992 49.6068 102.205 49.7375 102.39C49.8682 102.575 50.0415 102.725 50.2427 102.829C50.4439 102.933 50.6672 102.986 50.8935 102.984C51.1198 102.983 51.3423 102.926 51.542 102.82C52.6923 102.158 56.311 97.6955 54.5655 94.9378C57.1156 94.6169 57.7797 92.2521 58.3276 89.9273C58.41 89.5634 58.9688 87.069 58.7157 86.7948ZM46.7845 100.751C45.8806 100.908 45.363 100.786 44.8968 99.9949C45.8049 99.0771 47.5843 95.2072 48.6293 94.5394C49.0053 94.2965 49.4307 94.1405 49.8746 94.0829C49.7942 94.4548 49.6508 94.8103 49.4508 95.1339C48.3362 96.9103 48.8599 98.0436 50.3529 95.6849C51.1158 94.4553 51.0437 93.1191 51.3035 91.9627C51.5456 90.8572 51.8841 90.5557 51.769 90.3474C51.6068 90.0302 50.5031 90.3698 50.2028 92.0929C48.5076 89.6863 51.9731 85.4967 51.7497 84.3737C52.4859 84.3936 53.0259 84.1194 53.8687 85.2213C53.1694 85.6451 51.8284 88.7636 52.165 89.9006C52.0548 89.9612 51.7951 90.1822 51.858 90.2978C51.927 90.4261 52.2346 90.3632 52.4302 90.4104C53.7948 90.4104 52.9968 98.106 50.1901 98.0079C49.2081 97.9559 49.2728 97.0629 49.0531 97.0477C48.9102 97.0235 48.6601 97.4533 48.8315 97.9825C47.6473 98.3022 46.7191 100.175 46.7845 100.751ZM51.6516 102.379C50.8264 102.405 50.5261 102.455 49.8353 101.735C50.3084 101.466 50.6748 101.042 50.8732 100.535C51.0716 100.028 51.0899 99.4688 50.9251 98.95C52.4592 98.6079 53.2045 96.9557 53.6313 95.4445C55.0408 97.4661 51.9743 100.639 51.6516 102.378V102.379ZM57.9274 88.1279C56.7511 91.1636 56.7329 93.914 54.0037 93.9176C54.2006 92.9319 54.1762 91.9147 53.9322 90.9395C55.1225 90.5394 56.0839 88.1316 56.3382 86.9025C56.4938 86.1016 56.3055 86.2905 56.6409 86.2214C56.9604 86.204 57.2794 86.2642 57.5706 86.3968C57.8618 86.5294 58.1166 86.7306 58.3131 86.9831C58.462 87.1483 58.4112 86.8789 57.9274 88.1279Z" fill="black"/>
</svg>
